<svg style="display: none" xmlns="http://www.w3.org/2000/svg" xmlns:xlink="http://www.w3.org/1999/xlink" version="1.1">
  <symbol id="search" xmlns="http://www.w3.org/2000/svg" viewBox="0 -960 960 960" fill="currentColor"><path d="M784-120 532-372q-30 24-69 38t-83 14q-109 0-184.5-75.5T120-580q0-109 75.5-184.5T380-840q109 0 184.5 75.5T640-580q0 44-14 83t-38 69l252 252-56 56ZM380-400q75 0 127.5-52.5T560-580q0-75-52.5-127.5T380-760q-75 0-127.5 52.5T200-580q0 75 52.5 127.5T380-400Z" /></symbol>
  <symbol id="shopping_bag" xmlns="http://www.w3.org/2000/svg" viewBox="0 -960 960 960" fill="currentColor"><path d="M240-80q-33 0-56.5-23.5T160-160v-480q0-33 23.5-56.5T240-720h80q0-66 47-113t113-47q66 0 113 47t47 113h80q33 0 56.5 23.5T800-640v480q0 33-23.5 56.5T720-80H240Zm0-80h480v-480h-80v80q0 17-11.5 28.5T600-520q-17 0-28.5-11.5T560-560v-80H400v80q0 17-11.5 28.5T360-520q-17 0-28.5-11.5T320-560v-80h-80v480Zm160-560h160q0-33-23.5-56.5T480-800q-33 0-56.5 23.5T400-720ZM240-160v-480 480Z" /></symbol>
  <symbol id="menu" xmlns="http://www.w3.org/2000/svg" viewBox="0 -960 960 960" fill="currentColor"><path d="M120-240v-80h720v80H120Zm0-200v-80h720v80H120Zm0-200v-80h720v80H120Z" /></symbol>
  <symbol id="account_circle" xmlns="http://www.w3.org/2000/svg" viewBox="0 -960 960 960" fill="currentColor"><path d="M234-276q51-39 114-61.5T480-360q69 0 132 22.5T726-276q35-41 54.5-93T800-480q0-133-93.5-226.5T480-800q-133 0-226.5 93.5T160-480q0 59 19.5 111t54.5 93Zm246-164q-59 0-99.5-40.5T340-580q0-59 40.5-99.5T480-720q59 0 99.5 40.5T620-580q0 59-40.5 99.5T480-440Zm0 360q-83 0-156-31.5T197-197q-54-54-85.5-127T80-480q0-83 31.5-156T197-763q54-54 127-85.5T480-880q83 0 156 31.5T763-763q54 54 85.5 127T880-480q0 83-31.5 156T763-197q-54 54-127 85.5T480-80Zm0-80q53 0 100-15.5t86-44.5q-39-29-86-44.5T480-280q-53 0-100 15.5T294-220q39 29 86 44.5T480-160Zm0-360q26 0 43-17t17-43q0-26-17-43t-43-17q-26 0-43 17t-17 43q0 26 17 43t43 17Zm0-60Zm0 360Z" /></symbol>
  <symbol id="close" xmlns="http://www.w3.org/2000/svg" viewBox="0 -960 960 960" fill="currentColor"><path d="m256-200-56-56 224-224-224-224 56-56 224 224 224-224 56 56-224 224 224 224-56 56-224-224-224 224Z" /></symbol>
  <symbol id="chevron-right" xmlns="http://www.w3.org/2000/svg" viewBox="0 0 20 20" fill="none">
    <path d="M7.5 15L12.5 10L7.5 5" stroke="currentColor" stroke-width="2" stroke-linecap="round" stroke-linejoin="round" />
  </symbol>
  <symbol id="chevron-right-institutional" width="16" height="16" viewBox="0 0 16 16" fill="none" xmlns="http://www.w3.org/2000/svg"><path d="M6 12L10 8L6 4" stroke="currentColor" stroke-linecap="round" stroke-linejoin="round" /></symbol>
  <symbol id="chevron-up" width="24" height="24" viewBox="0 0 24 24" fill="none" xmlns="http://www.w3.org/2000/svg">
    <path d="M17 11L12 6L7 11" stroke="#FF8300" stroke-width="2" stroke-linecap="round" stroke-linejoin="round" />
    <path d="M17 18L12 13L7 18" stroke="#FF8300" stroke-width="2" stroke-linecap="round" stroke-linejoin="round" />
  </symbol>
  <symbol id="favorite" xmlns="http://www.w3.org/2000/svg" viewBox="0 -960 960 960" fill="currentColor"><path d="m480-120-58-52q-101-91-167-157T150-447.5Q111-500 95.5-544T80-634q0-94 63-157t157-63q52 0 99 22t81 62q34-40 81-62t99-22q94 0 157 63t63 157q0 46-15.5 90T810-447.5Q771-395 705-329T538-172l-58 52Zm0-108q96-86 158-147.5t98-107q36-45.5 50-81t14-70.5q0-60-40-100t-100-40q-47 0-87 26.5T518-680h-76q-15-41-55-67.5T300-774q-60 0-100 40t-40 100q0 35 14 70.5t50 81q36 45.5 98 107T480-228Zm0-273Z" /></symbol>
  <symbol id="chevron-left" viewBox="0 0 20 20" fill="none" xmlns="http://www.w3.org/2000/svg">
    <path d="M12.5 15L7.5 10L12.5 5" stroke="currentColor" stroke-width="2" stroke-linecap="round" stroke-linejoin="round" />
  </symbol>
  <symbol id="chevron-down" viewBox="0 0 20 20" fill="none" xmlns="http://www.w3.org/2000/svg">
    <path d="M5 7.5L10 12.5L15 7.5" stroke="currentColor" stroke-width="1.5" stroke-linecap="round" stroke-linejoin="round" />
  </symbol>
  <symbol id="favorite" xmlns="http://www.w3.org/2000/svg" viewBox="0 -960 960 960" fill="currentColor"><path d="m480-120-58-52q-101-91-167-157T150-447.5Q111-500 95.5-544T80-634q0-94 63-157t157-63q52 0 99 22t81 62q34-40 81-62t99-22q94 0 157 63t63 157q0 46-15.5 90T810-447.5Q771-395 705-329T538-172l-58 52Zm0-108q96-86 158-147.5t98-107q36-45.5 50-81t14-70.5q0-60-40-100t-100-40q-47 0-87 26.5T518-680h-76q-15-41-55-67.5T300-774q-60 0-100 40t-40 100q0 35 14 70.5t50 81q36 45.5 98 107T480-228Zm0-273Z" /></symbol>
  <symbol id="home_pin" xmlns="http://www.w3.org/2000/svg" viewBox="0 -960 960 960" fill="currentColor"><path d="M360-440h80v-110h80v110h80v-190l-120-80-120 80v190Zm120 254q122-112 181-203.5T720-552q0-109-69.5-178.5T480-800q-101 0-170.5 69.5T240-552q0 71 59 162.5T480-186Zm0 106Q319-217 239.5-334.5T160-552q0-150 96.5-239T480-880q127 0 223.5 89T800-552q0 100-79.5 217.5T480-80Zm0-480Z" /></symbol>
  <symbol id="call" xmlns="http://www.w3.org/2000/svg" viewBox="0 -960 960 960" fill="currentColor"><path d="M798-120q-125 0-247-54.5T329-329Q229-429 174.5-551T120-798q0-18 12-30t30-12h162q14 0 25 9.5t13 22.5l26 140q2 16-1 27t-11 19l-97 98q20 37 47.5 71.5T387-386q31 31 65 57.5t72 48.5l94-94q9-9 23.5-13.5T670-390l138 28q14 4 23 14.5t9 23.5v162q0 18-12 30t-30 12ZM241-600l66-66-17-94h-89q5 41 14 81t26 79Zm358 358q39 17 79.5 27t81.5 13v-88l-94-19-67 67ZM241-600Zm358 358Z" /></symbol>
  <symbol id="local_shipping" xmlns="http://www.w3.org/2000/svg" viewBox="0 -960 960 960" fill="currentColor"><path d="M240-160q-50 0-85-35t-35-85H40v-440q0-33 23.5-56.5T120-800h560v160h120l120 160v200h-80q0 50-35 85t-85 35q-50 0-85-35t-35-85H360q0 50-35 85t-85 35Zm0-80q17 0 28.5-11.5T280-280q0-17-11.5-28.5T240-320q-17 0-28.5 11.5T200-280q0 17 11.5 28.5T240-240ZM120-360h32q17-18 39-29t49-11q27 0 49 11t39 29h272v-360H120v360Zm600 120q17 0 28.5-11.5T760-280q0-17-11.5-28.5T720-320q-17 0-28.5 11.5T680-280q0 17 11.5 28.5T720-240Zm-40-200h170l-90-120h-80v120ZM360-540Z" /></symbol>
  <symbol id="pan_zoom" xmlns="http://www.w3.org/2000/svg" viewBox="0 -960 960 960" fill="currentColor"><path d="M120-120v-240h80v104l124-124 56 56-124 124h104v80H120Zm516-460-56-56 124-124H600v-80h240v240h-80v-104L636-580Z" /></symbol>
  <symbol id="share" xmlns="http://www.w3.org/2000/svg" viewBox="0 -960 960 960" fill="currentColor"><path d="M720-80q-50 0-85-35t-35-85q0-7 1-14.5t3-13.5L322-392q-17 15-38 23.5t-44 8.5q-50 0-85-35t-35-85q0-50 35-85t85-35q23 0 44 8.5t38 23.5l282-164q-2-6-3-13.5t-1-14.5q0-50 35-85t85-35q50 0 85 35t35 85q0 50-35 85t-85 35q-23 0-44-8.5T638-672L356-508q2 6 3 13.5t1 14.5q0 7-1 14.5t-3 13.5l282 164q17-15 38-23.5t44-8.5q50 0 85 35t35 85q0 50-35 85t-85 35Zm0-640q17 0 28.5-11.5T760-760q0-17-11.5-28.5T720-800q-17 0-28.5 11.5T680-760q0 17 11.5 28.5T720-720ZM240-440q17 0 28.5-11.5T280-480q0-17-11.5-28.5T240-520q-17 0-28.5 11.5T200-480q0 17 11.5 28.5T240-440Zm480 280q17 0 28.5-11.5T760-200q0-17-11.5-28.5T720-240q-17 0-28.5 11.5T680-200q0 17 11.5 28.5T720-160Zm0-600ZM240-480Zm480 280Z" /></symbol>
  <symbol id="sell" xmlns="http://www.w3.org/2000/svg" viewBox="0 -960 960 960" fill="currentColor"><path d="M856-390 570-104q-12 12-27 18t-30 6q-15 0-30-6t-27-18L103-457q-11-11-17-25.5T80-513v-287q0-33 23.5-56.5T160-880h287q16 0 31 6.5t26 17.5l352 353q12 12 17.5 27t5.5 30q0 15-5.5 29.5T856-390ZM513-160l286-286-353-354H160v286l353 354ZM260-640q25 0 42.5-17.5T320-700q0-25-17.5-42.5T260-760q-25 0-42.5 17.5T200-700q0 25 17.5 42.5T260-640Zm220 160Z" /></symbol>
  <symbol id="check-circle" xmlns="http://www.w3.org/2000/svg" viewBox="0 -960 960 960" fill="currentColor"><path d="m424-296 282-282-56-56-226 226-114-114-56 56 170 170Zm56 216q-83 0-156-31.5T197-197q-54-54-85.5-127T80-480q0-83 31.5-156T197-763q54-54 127-85.5T480-880q83 0 156 31.5T763-763q54 54 85.5 127T880-480q0 83-31.5 156T763-197q-54 54-127 85.5T480-80Zm0-80q134 0 227-93t93-227q0-134-93-227t-227-93q-134 0-227 93t-93 227q0 134 93 227t227 93Zm0-320Z" /></symbol>
  <symbol id="error" xmlns="http://www.w3.org/2000/svg" viewBox="0 -960 960 960" fill="currentColor"><path d="M480-280q17 0 28.5-11.5T520-320q0-17-11.5-28.5T480-360q-17 0-28.5 11.5T440-320q0 17 11.5 28.5T480-280Zm-40-160h80v-240h-80v240Zm40 360q-83 0-156-31.5T197-197q-54-54-85.5-127T80-480q0-83 31.5-156T197-763q54-54 127-85.5T480-880q83 0 156 31.5T763-763q54 54 85.5 127T880-480q0 83-31.5 156T763-197q-54 54-127 85.5T480-80Zm0-80q134 0 227-93t93-227q0-134-93-227t-227-93q-134 0-227 93t-93 227q0 134 93 227t227 93Zm0-320Z" /></symbol>
  <symbol id="trash" xmlns="http://www.w3.org/2000/svg" viewBox="0 -960 960 960" fill="currentColor"><path d="M280-120q-33 0-56.5-23.5T200-200v-520h-40v-80h200v-40h240v40h200v80h-40v520q0 33-23.5 56.5T680-120H280Zm400-600H280v520h400v-520ZM360-280h80v-360h-80v360Zm160 0h80v-360h-80v360ZM280-720v520-520Z" /></symbol>
  <symbol id="close-search" viewBox="0 0 20 20" fill="none" xmlns="http://www.w3.org/2000/svg">
    <path d="M15 5L5 15" stroke="currentColor" stroke-width="2" stroke-linecap="round" stroke-linejoin="round" />
    <path d="M5 5L15 15" stroke="currentColor" stroke-width="2" stroke-linecap="round" stroke-linejoin="round" />
  </symbol>
  <symbol id="home_icon" width="14" height="14" viewBox="0 0 14 14" fill="none" xmlns="http://www.w3.org/2000/svg">
    <path d="M1.75 5.25033L7 1.16699L12.25 5.25033V11.667C12.25 11.9764 12.1271 12.2732 11.9083 12.492C11.6895 12.7107 11.3928 12.8337 11.0833 12.8337H2.91667C2.60725 12.8337 2.3105 12.7107 2.09171 12.492C1.87292 12.2732 1.75 11.9764 1.75 11.667V5.25033Z" stroke="#FF8300" stroke-linecap="round" stroke-linejoin="round" />
    <path d="M5.25 12.8333V7H8.75V12.8333" stroke="#FF8300" stroke-linecap="round" stroke-linejoin="round" />
  </symbol>
  <symbol id="location_pin" viewBox="0 0 20 21" fill="none" xmlns="http://www.w3.org/2000/svg">
    <g clip-path="url(#clip0_504_27497)">
      <path d="M17.5 8.83337C17.5 14.6667 10 19.6667 10 19.6667C10 19.6667 2.5 14.6667 2.5 8.83337C2.5 6.84425 3.29018 4.9366 4.6967 3.53007C6.10322 2.12355 8.01088 1.33337 10 1.33337C11.9891 1.33337 13.8968 2.12355 15.3033 3.53007C16.7098 4.9366 17.5 6.84425 17.5 8.83337Z" stroke="currentColor" stroke-width="2" stroke-linecap="round" stroke-linejoin="round" />
      <path d="M10 11.3334C11.3807 11.3334 12.5 10.2141 12.5 8.83337C12.5 7.45266 11.3807 6.33337 10 6.33337C8.61929 6.33337 7.5 7.45266 7.5 8.83337C7.5 10.2141 8.61929 11.3334 10 11.3334Z" stroke="currentColor" stroke-width="2" stroke-linecap="round" stroke-linejoin="round" />
    </g>
    <defs>
      <clipPath id="clip0_504_27497">
        <rect width="20" height="20" fill="white" transform="translate(0 0.5)" />
      </clipPath>
    </defs>
  </symbol>
  <symbol id="plus" width="20" height="21" viewBox="0 0 20 21" fill="none" xmlns="http://www.w3.org/2000/svg">
    <path d="M10 4.93213V16.5988" stroke="currentColor" stroke-width="2" stroke-linecap="round" stroke-linejoin="round" />
    <path d="M4.16699 10.7656H15.8337" stroke="currentColor" stroke-width="2" stroke-linecap="round" stroke-linejoin="round" />
  </symbol>
  <symbol id="minus" width="24" height="24" viewBox="0 0 24 24" fill="none" xmlns="http://www.w3.org/2000/svg">
    <path d="M5 12H19" stroke="currentColor" stroke-width="2" stroke-linecap="round" stroke-linejoin="round" />
  </symbol>
  <symbol id="home-breadcrumb" width="14" height="14" viewBox="0 0 14 14" fill="none" xmlns="http://www.w3.org/2000/svg">
    <path d="M1.75 5.25L7 1.16667L12.25 5.25V11.6667C12.25 11.9761 12.1271 12.2728 11.9083 12.4916C11.6895 12.7104 11.3928 12.8333 11.0833 12.8333H2.91667C2.60725 12.8333 2.3105 12.7104 2.09171 12.4916C1.87292 12.2728 1.75 11.9761 1.75 11.6667V5.25Z" stroke="currentColor" stroke-linecap="round" stroke-linejoin="round" />
    <path d="M5.25 12.8333V7H8.75V12.8333" stroke="currentColor" stroke-linecap="round" stroke-linejoin="round" />
  </symbol>
  <symbol id="cat_sort_orders:desc" width="21" height="20" viewBox="0 0 21 20" fill="none" xmlns="http://www.w3.org/2000/svg">
    <g clip-path="url(#clip0_175_10510)">
      <path d="M9.07129 18.9286H11.9284" stroke="currentColor" stroke-width="1.71429" stroke-linecap="round" stroke-linejoin="round" />
      <path d="M16.214 8.21429C16.214 6.69876 15.612 5.24531 14.5403 4.17367C13.4687 3.10204 12.0152 2.5 10.4997 2.5C8.98419 2.5 7.53075 3.10204 6.45911 4.17367C5.38748 5.24531 4.78544 6.69876 4.78544 8.21429V13.2143C4.78544 13.7826 4.55966 14.3277 4.15781 14.7296C3.75595 15.1314 3.21089 15.3571 2.64258 15.3571H18.3569C17.7886 15.3571 17.2434 15.1314 16.8416 14.7296C16.4397 14.3277 16.214 13.7826 16.214 13.2143V8.21429Z" stroke="currentColor" stroke-width="1.71429" stroke-linecap="round" stroke-linejoin="round" />
      <path d="M1.21387 8.02859C1.21464 6.66879 1.53892 5.32868 2.15992 4.11897C2.78092 2.90926 3.68082 1.86466 4.7853 1.07144" stroke="currentColor" stroke-width="1.71429" stroke-linecap="round" stroke-linejoin="round" />
      <path d="M19.7853 8.02859C19.7846 6.66879 19.4603 5.32868 18.8393 4.11897C18.2183 2.90926 17.3183 1.86466 16.2139 1.07144" stroke="currentColor" stroke-width="1.71429" stroke-linecap="round" stroke-linejoin="round" />
    </g>
    <defs>
      <clipPath id="clip0_175_10510">
        <rect width="20" height="20" fill="transparent" transform="translate(0.5)" />
      </clipPath>
    </defs>
  </symbol>
  <symbol id="cat_sort_price:asc" width="21" height="20" viewBox="0 0 21 20" fill="none" xmlns="http://www.w3.org/2000/svg">
    <g clip-path="url(#clip0_175_10515)">
      <path d="M14.0723 15H19.7865V9.28571" stroke="currentColor" stroke-width="1.71429" stroke-linecap="round" stroke-linejoin="round" />
      <path d="M19.7863 15L11.7148 6.92857C11.5813 6.7977 11.4018 6.72439 11.2148 6.72439C11.0279 6.72439 10.8484 6.7977 10.7148 6.92857L7.42913 10.2143C7.29562 10.3452 7.1161 10.4185 6.92913 10.4185C6.74216 10.4185 6.56264 10.3452 6.42913 10.2143L1.21484 5" stroke="currentColor" stroke-width="1.71429" stroke-linecap="round" stroke-linejoin="round" />
    </g>
    <defs>
      <clipPath id="clip0_175_10515">
        <rect width="20" height="20" fill="transparent" transform="translate(0.5)" />
      </clipPath>
    </defs>
  </symbol>
  <symbol id="cat_sort_price:desc" width="21" height="20" viewBox="0 0 21 20" fill="none" xmlns="http://www.w3.org/2000/svg">
    <g clip-path="url(#clip0_175_10520)">
      <path d="M14.0723 5H19.7865V10.7143" stroke="currentColor" stroke-width="1.71429" stroke-linecap="round" stroke-linejoin="round" />
      <path d="M19.7863 5L11.7148 13.0714C11.5813 13.2023 11.4018 13.2756 11.2148 13.2756C11.0279 13.2756 10.8484 13.2023 10.7148 13.0714L7.42913 9.78571C7.29562 9.65484 7.1161 9.58153 6.92913 9.58153C6.74216 9.58153 6.56264 9.65484 6.42913 9.78571L1.21484 15" stroke="currentColor" stroke-width="1.71429" stroke-linecap="round" stroke-linejoin="round" />
    </g>
    <defs>
      <clipPath id="clip0_175_10520">
        <rect width="20" height="20" fill="transparent" transform="translate(0.5)" />
      </clipPath>
    </defs>
  </symbol>
  <symbol id="cat_sort_discount:desc" width="20" height="20" viewBox="0 0 20 20" fill="none" xmlns="http://www.w3.org/2000/svg">
    <g clip-path="url(#clip0_24_80)">
      <path d="M5.78961 14.2104L13.2105 6.78954M7.72507 1.63077C8.75892 0.789745 10.2411 0.789745 11.2749 1.63077L11.7688 2.03255L12.3975 1.93155C13.7133 1.72013 14.997 2.4612 15.4718 3.70648L15.6987 4.3014L16.2935 4.52824C17.5388 5.00307 18.28 6.28666 18.0685 7.60251L17.9674 8.23115L18.3693 8.72505C19.2102 9.7589 19.2102 11.2411 18.3693 12.2749L17.9674 12.7688L18.0685 13.3974C18.28 14.7133 17.5388 15.9969 16.2935 16.4718L15.6987 16.6986L15.4718 17.2934C14.997 18.5388 13.7133 19.2798 12.3975 19.0683L11.7688 18.9674L11.2749 19.3692C10.2411 20.2103 8.75892 20.2103 7.72507 19.3692L7.23115 18.9674L6.60253 19.0683C5.28668 19.2798 4.00308 18.5388 3.52825 17.2934L3.30139 16.6986L2.70649 16.4718C1.46121 15.9969 0.720133 14.7133 0.931554 13.3974L1.03255 12.7688L0.630771 12.2749C-0.210257 11.2411 -0.210257 9.7589 0.630771 8.72505L1.03255 8.23115L0.931554 7.60251C0.720133 6.28666 1.46121 5.00307 2.70649 4.52824L3.30139 4.3014L3.52825 3.70648C4.00308 2.4612 5.28668 1.72013 6.60253 1.93155L7.23115 2.03255L7.72507 1.63077ZM6.53169 8.27371C6.94153 8.27371 7.27378 7.94146 7.27378 7.53162C7.27378 7.12178 6.94153 6.78954 6.53169 6.78954C6.12185 6.78954 5.78961 7.12178 5.78961 7.53162C5.78961 7.94146 6.12185 8.27371 6.53169 8.27371ZM12.4684 14.2104C12.8783 14.2104 13.2105 13.8782 13.2105 13.4683C13.2105 13.0585 12.8783 12.7262 12.4684 12.7262C12.0586 12.7262 11.7263 13.0585 11.7263 13.4683C11.7263 13.8782 12.0586 14.2104 12.4684 14.2104Z" stroke="currentColor" stroke-width="1.71429" stroke-linecap="round" stroke-linejoin="round" />
    </g>
    <defs>
      <clipPath id="clip0_24_80">
        <rect width="20" height="20" fill="transparent" />
      </clipPath>
    </defs>
  </symbol>
  <symbol id="cat_sort_release:desc" width="20" height="20" viewBox="0 0 20 20" fill="none" xmlns="http://www.w3.org/2000/svg">
    <g clip-path="url(#clip0_24_83)">
      <path d="M2.42854 3.14284C2.04966 3.14284 1.6863 3.29336 1.41839 3.56126C1.15048 3.82917 0.999969 4.19253 0.999969 4.57141V18.1428C0.999969 18.5217 1.15048 18.8851 1.41839 19.153C1.6863 19.4208 2.04966 19.5714 2.42854 19.5714H18.1428C18.5217 19.5714 18.8851 19.4208 19.153 19.153C19.4208 18.8851 19.5714 18.5217 19.5714 18.1428V4.57141C19.5714 4.19253 19.4208 3.82917 19.153 3.56126C18.8851 3.29336 18.5217 3.14284 18.1428 3.14284H15.2857M0.999969 8.14284H19.5714M5.28565 1V5.28571M15.2857 1V5.28571M5.28565 3.14284H12.4285" stroke="currentColor" stroke-width="1.71429" stroke-linecap="round" stroke-linejoin="round" />
    </g>
    <defs>
      <clipPath id="clip0_24_83">
        <rect width="20" height="20" fill="transparent" />
      </clipPath>
    </defs>
  </symbol>
  <symbol id="cat_sort_relevance:desc" width="21" height="20" viewBox="0 0 21 20" fill="none" xmlns="http://www.w3.org/2000/svg">
    <g clip-path="url(#clip0_175_10537)">
      <path d="M11.1999 1.55722L13.4714 6.14293C13.523 6.25933 13.6043 6.36015 13.7071 6.43535C13.8098 6.51053 13.9305 6.55749 14.0571 6.5715L19.0713 7.31436C19.2166 7.33302 19.3535 7.3926 19.466 7.48616C19.5786 7.5797 19.6623 7.70336 19.7072 7.84266C19.7522 7.98197 19.7565 8.1312 19.7198 8.2729C19.6832 8.41462 19.6069 8.54294 19.4999 8.64293L15.8856 12.2286C15.7935 12.3148 15.7242 12.4227 15.6843 12.5425C15.6443 12.6622 15.635 12.7901 15.657 12.9144L16.5285 17.9572C16.5538 18.1022 16.5378 18.2512 16.4825 18.3874C16.4272 18.5237 16.3348 18.6417 16.2156 18.7282C16.0966 18.8144 15.9556 18.8656 15.8089 18.8759C15.6622 18.886 15.5155 18.8549 15.3856 18.7857L10.8714 16.4C10.7558 16.3433 10.6287 16.3139 10.4999 16.3139C10.3712 16.3139 10.2441 16.3433 10.1285 16.4L5.61422 18.7857C5.48435 18.8549 5.33771 18.886 5.19098 18.8759C5.04425 18.8656 4.90332 18.8144 4.78425 18.7282C4.66517 18.6417 4.57271 18.5237 4.5174 18.3874C4.4621 18.2512 4.44614 18.1022 4.47137 17.9572L5.3428 12.8572C5.36488 12.7329 5.35554 12.6051 5.31562 12.4853C5.27571 12.3656 5.20647 12.2577 5.11422 12.1715L1.45709 8.64293C1.34889 8.54022 1.2728 8.40832 1.23803 8.26325C1.20327 8.11816 1.21132 7.9661 1.26121 7.8255C1.3111 7.6849 1.40069 7.56179 1.51913 7.47106C1.63757 7.38034 1.77977 7.3259 1.92851 7.31436L6.9428 6.5715C7.06937 6.55749 7.19005 6.51053 7.29282 6.43535C7.3956 6.36015 7.47685 6.25933 7.52851 6.14293L9.79994 1.55722C9.86179 1.42366 9.96057 1.31058 10.0846 1.23134C10.2086 1.15209 10.3528 1.10999 10.4999 1.10999C10.6471 1.10999 10.7913 1.15209 10.9153 1.23134C11.0393 1.31058 11.1381 1.42366 11.1999 1.55722Z" stroke="currentColor" stroke-width="1.71429" stroke-linecap="round" stroke-linejoin="round" />
    </g>
    <defs>
      <clipPath id="clip0_175_10537">
        <rect width="20" height="20" fill="transparent" transform="translate(0.5)" />
      </clipPath>
    </defs>
  </symbol>
  <symbol id="cat_sort_name:asc" width="20" height="20" viewBox="0 0 20 20" fill="none" xmlns="http://www.w3.org/2000/svg">
    <path d="M9.70398 6.6L5.20398 17.4C5.12398 17.6133 5.00398 17.78 4.84398 17.9C4.68398 18.02 4.50398 18.08 4.30398 18.08C4.01065 18.08 3.79065 18 3.64398 17.84C3.49732 17.6667 3.41732 17.4533 3.40398 17.2C3.40398 17.1067 3.42398 17 3.46398 16.88L8.54398 4.6C8.63732 4.37333 8.77065 4.2 8.94398 4.08C9.13065 3.96 9.33065 3.90667 9.54398 3.92C9.74398 3.92 9.93065 3.98 10.104 4.1C10.2773 4.22 10.404 4.38667 10.484 4.6L15.504 16.7C15.5573 16.8333 15.584 16.9667 15.584 17.1C15.584 17.3933 15.484 17.6333 15.284 17.82C15.0973 17.9933 14.884 18.08 14.644 18.08C14.444 18.08 14.2573 18.02 14.084 17.9C13.924 17.7667 13.804 17.6 13.724 17.4L9.18398 6.66L9.70398 6.6ZM6.00398 14.56L6.90398 12.64H12.564L12.904 14.56H6.00398Z" fill="currentColor" />
  </symbol>
  <symbol id="cat_sort_name:desc" width="20" height="20" viewBox="0 0 20 20" fill="none" xmlns="http://www.w3.org/2000/svg">
    <path d="M14.1054 4C14.3587 4 14.5987 4.09333 14.8254 4.28C15.0654 4.45333 15.1854 4.68667 15.1854 4.98C15.1854 5.19333 15.1121 5.40667 14.9654 5.62L6.82539 16.2L6.64539 16.08H13.9654C14.2454 16.08 14.4787 16.1667 14.6654 16.34C14.8654 16.5133 14.9654 16.7467 14.9654 17.04C14.9654 17.3067 14.8654 17.5333 14.6654 17.72C14.4787 17.9067 14.2454 18 13.9654 18H4.90539C4.61206 18 4.35872 17.9 4.14539 17.7C3.94539 17.4867 3.84539 17.2533 3.84539 17C3.84539 16.7867 3.92539 16.58 4.08539 16.38L12.2254 5.8L12.3854 5.92H5.60539C5.32539 5.92 5.08539 5.83333 4.88539 5.66C4.69872 5.47333 4.60539 5.23333 4.60539 4.94C4.60539 4.66 4.69872 4.43333 4.88539 4.26C5.08539 4.08667 5.32539 4 5.60539 4H14.1054Z" fill="currentColor" />
  </symbol>
  <symbol id="sort" width="16" height="16" viewBox="0 0 16 16" fill="none" xmlns="http://www.w3.org/2000/svg">
    <path d="M2.66536 8H9.33203" stroke="currentColor" stroke-width="1.2" stroke-linecap="round" stroke-linejoin="round" />
    <path d="M2.66536 4L13.332 4" stroke="currentColor" stroke-width="1.2" stroke-linecap="round" stroke-linejoin="round" />
    <path d="M2.66536 12H5.33203" stroke="currentColor" stroke-width="1.2" stroke-linecap="round" stroke-linejoin="round" />
  </symbol>
  <symbol id="cashback-coin" width="17" height="17" viewBox="0 0 17 17" fill="none" xmlns="http://www.w3.org/2000/svg">
    <g clip-path="url(#clip0_29_528)">
      <path d="M6.15625 6.40625C6.15625 7.64944 6.65011 8.84175 7.52919 9.72081C8.40825 10.5999 9.60056 11.0938 10.8438 11.0938C12.0869 11.0938 13.2793 10.5999 14.1583 9.72081C15.0374 8.84175 15.5312 7.64944 15.5312 6.40625C15.5312 5.16305 15.0374 3.97076 14.1583 3.09169C13.2793 2.21261 12.0869 1.71875 10.8438 1.71875C9.60056 1.71875 8.40825 2.21261 7.52919 3.09169C6.65011 3.97076 6.15625 5.16305 6.15625 6.40625Z" stroke="currentColor" stroke-width="1.11551" stroke-linecap="round" stroke-linejoin="round" />
      <path d="M4.98438 10.0575C4.98439 10.225 5.03459 10.3887 5.1285 10.5274C5.22241 10.6661 5.35573 10.7734 5.51125 10.8356L6.80125 11.3519C6.98191 11.4246 7.13164 11.5579 7.22477 11.7289C7.31788 11.8999 7.34862 12.098 7.31169 12.2892C7.27475 12.4804 7.17239 12.6527 7.02224 12.7767C6.87209 12.9007 6.68348 12.9686 6.48875 12.9687H5.21875" stroke="currentColor" stroke-width="1.11551" stroke-linecap="round" stroke-linejoin="round" />
      <path d="M6.15625 13.9062V12.9688" stroke="currentColor" stroke-width="1.11551" stroke-linecap="round" stroke-linejoin="round" />
      <path d="M4.30068 6.79184C3.59737 7.09426 2.97884 7.56431 2.49914 8.161C2.01944 8.75763 1.69317 9.46269 1.54887 10.2146C1.40456 10.9664 1.44661 11.7421 1.67132 12.474C1.89604 13.2059 2.29658 13.8715 2.83795 14.4129C3.37932 14.9542 4.04504 15.3546 4.77691 15.5793C5.50879 15.8039 6.28454 15.8459 7.03637 15.7015C7.78819 15.5571 8.49325 15.2308 9.08987 14.751C9.68644 14.2713 10.1564 13.6527 10.4588 12.9493" stroke="currentColor" stroke-width="1.11551" stroke-linecap="round" stroke-linejoin="round" />
      <path d="M11.7807 4.53125H10.51C10.3153 4.53139 10.1267 4.59927 9.97654 4.72327C9.82642 4.84727 9.7241 5.01964 9.6871 5.21084C9.65016 5.40203 9.68091 5.60012 9.77404 5.77114C9.86716 5.94216 10.0169 6.07544 10.1975 6.14812L11.4875 6.66438C11.6682 6.73706 11.8179 6.87034 11.911 7.04136C12.0042 7.21238 12.0349 7.41047 11.998 7.60169C11.961 7.79287 11.8587 7.96525 11.7085 8.08925C11.5584 8.21325 11.3698 8.28113 11.175 8.28125H9.90566" stroke="currentColor" stroke-width="1.11551" stroke-linecap="round" stroke-linejoin="round" />
      <path d="M10.8438 4.53125V3.59375" stroke="currentColor" stroke-width="1.11551" stroke-linecap="round" stroke-linejoin="round" />
      <path d="M10.8438 9.21875V8.28125" stroke="currentColor" stroke-width="1.11551" stroke-linecap="round" stroke-linejoin="round" />
    </g>
    <defs>
      <clipPath id="clip0_29_528">
        <rect width="17" height="15.5" fill="transparent" transform="translate(0 0.75)" />
      </clipPath>
    </defs>
  </symbol>
  <symbol id="hanger" width="18" height="14" viewBox="0 0 18 14" fill="none" xmlns="http://www.w3.org/2000/svg">
    <path d="M10.7813 2.23333C10.7813 1.77362 10.594 1.33274 10.2606 1.00768C9.92724 0.682618 9.47505 0.5 9.00356 0.5C8.53206 0.5 8.07987 0.682618 7.74648 1.00768C7.41308 1.33274 7.22578 1.77362 7.22578 2.23333C7.22844 3.67807 7.82133 4.83333 9.00711 5.7H9L16.0853 9.5376C16.3626 9.68774 16.5937 9.90746 16.7545 10.174C16.9153 10.4405 17.0001 10.7442 17 11.0534V11.7667C17 12.2264 16.8127 12.6673 16.4793 12.9923C16.1459 13.3174 15.6937 13.5 15.2222 13.5H2.77778C2.30628 13.5 1.8541 13.3174 1.5207 12.9923C1.1873 12.6673 1 12.2264 1 11.7667V11.0534C0.999917 10.7442 1.08469 10.4405 1.24552 10.174C1.40635 9.90746 1.63739 9.68774 1.91467 9.5376L9 5.7" stroke="currentColor" stroke-linecap="round" stroke-linejoin="round" />
  </symbol>
  <symbol id="ruler" width="18" height="20" viewBox="0 0 18 20" fill="none" xmlns="http://www.w3.org/2000/svg">
    <path d="M13.4444 1L17 5L4.55556 19L1 15L13.4444 1Z" stroke="currentColor" stroke-linecap="round" stroke-linejoin="round" />
    <path d="M12.556 5L11.2227 3.5" stroke="currentColor" stroke-linecap="round" stroke-linejoin="round" />
    <path d="M9.88802 8L8.55469 6.5" stroke="currentColor" stroke-linecap="round" stroke-linejoin="round" />
    <path d="M7.22201 11L5.88867 9.5" stroke="currentColor" stroke-linecap="round" stroke-linejoin="round" />
    <path d="M4.55599 14L3.22266 12.5" stroke="currentColor" stroke-linecap="round" stroke-linejoin="round" />
  </symbol>
  <symbol id="hearth-unfill" width="20" height="20" viewBox="0 0 20 20" fill="none" xmlns="http://www.w3.org/2000/svg">
    <path d="M17.3671 3.84172C16.9415 3.41589 16.4361 3.0781 15.8799 2.84763C15.3237 2.61716 14.7275 2.49854 14.1254 2.49854C13.5234 2.49854 12.9272 2.61716 12.371 2.84763C11.8147 3.0781 11.3094 3.41589 10.8838 3.84172L10.0004 4.72506L9.11709 3.84172C8.25735 2.98198 7.09129 2.49898 5.87542 2.49898C4.65956 2.49898 3.4935 2.98198 2.63376 3.84172C1.77401 4.70147 1.29102 5.86753 1.29102 7.08339C1.29102 8.29925 1.77401 9.46531 2.63376 10.3251L3.51709 11.2084L10.0004 17.6917L16.4838 11.2084L17.3671 10.3251C17.7929 9.89943 18.1307 9.39407 18.3612 8.83785C18.5917 8.28164 18.7103 7.68546 18.7103 7.08339C18.7103 6.48132 18.5917 5.88514 18.3612 5.32893C18.1307 4.77271 17.7929 4.26735 17.3671 3.84172Z" stroke="currentColor" stroke-width="2" stroke-linecap="round" stroke-linejoin="round" />
  </symbol>
  <symbol id="hearth-fill" width="20" height="20" viewBox="0 0 20 20" fill="none" xmlns="http://www.w3.org/2000/svg">
    <path d="M17.3671 3.84172C16.9415 3.41589 16.4361 3.0781 15.8799 2.84763C15.3237 2.61716 14.7275 2.49854 14.1254 2.49854C13.5234 2.49854 12.9272 2.61716 12.371 2.84763C11.8147 3.0781 11.3094 3.41589 10.8838 3.84172L10.0004 4.72506L9.11709 3.84172C8.25735 2.98198 7.09129 2.49898 5.87542 2.49898C4.65956 2.49898 3.4935 2.98198 2.63376 3.84172C1.77401 4.70147 1.29102 5.86753 1.29102 7.08339C1.29102 8.29925 1.77401 9.46531 2.63376 10.3251L3.51709 11.2084L10.0004 17.6917L16.4838 11.2084L17.3671 10.3251C17.7929 9.89943 18.1307 9.39407 18.3612 8.83785C18.5917 8.28164 18.7103 7.68546 18.7103 7.08339C18.7103 6.48132 18.5917 5.88514 18.3612 5.32893C18.1307 4.77271 17.7929 4.26735 17.3671 3.84172Z" fill="currentColor" stroke="currentColor" stroke-width="2" stroke-linecap="round" stroke-linejoin="round" />
  </symbol>
  <symbol id="filter" width="16" height="16" viewBox="0 0 16 16" fill="none" xmlns="http://www.w3.org/2000/svg">
    <path d="M13.9987 13.333H9.33203" stroke="currentColor" stroke-width="1.2" stroke-linecap="round" stroke-linejoin="round" />
    <path d="M6.6569 13.333H1.99023" stroke="currentColor" stroke-width="1.2" stroke-linecap="round" stroke-linejoin="round" />
    <path d="M13.9902 8H7.99023" stroke="currentColor" stroke-width="1.2" stroke-linecap="round" stroke-linejoin="round" />
    <path d="M5.32357 8H1.99023" stroke="currentColor" stroke-width="1.2" stroke-linecap="round" stroke-linejoin="round" />
    <path d="M13.9896 2.66699H10.6562" stroke="currentColor" stroke-width="1.2" stroke-linecap="round" stroke-linejoin="round" />
    <path d="M7.99023 2.66699L1.99023 2.66699" stroke="currentColor" stroke-width="1.2" stroke-linecap="round" stroke-linejoin="round" />
    <path d="M9.33203 15.333V11.333" stroke="currentColor" stroke-width="1.2" stroke-linecap="round" stroke-linejoin="round" />
    <path d="M5.32422 10V6" stroke="currentColor" stroke-width="1.2" stroke-linecap="round" stroke-linejoin="round" />
    <path d="M10.6562 4.66699V0.666992" stroke="currentColor" stroke-width="1.2" stroke-linecap="round" stroke-linejoin="round" />
  </symbol>
  <symbol id="stars-cat-1-desktop" width="21" height="47" viewBox="0 0 21 47" fill="none" xmlns="http://www.w3.org/2000/svg">
    <path d="M-20.6435 21.3572C-21.1249 21.3066 -21.5786 21.2374 -22 21.1532C-21.5602 21.1532 -21.1072 21.2234 -20.6435 21.3572C-13.5678 22.1002 -0.49361 18.8153 4.46154 0C5.5641 7.93245 10.4154 24.0618 21 25.1194C13.7231 29.306 -0.830769 39.53 -0.830769 46.9337C-4.75267 38.8895 -13.8529 23.3155 -20.6435 21.3572Z" fill="currentColor" />
  </symbol>
  <symbol id="stars-cat-2-desktop" width="71" height="82" viewBox="0 0 71 82" fill="none" xmlns="http://www.w3.org/2000/svg">
    <path d="M32.5554 48.0444C31.6485 47.9496 30.7939 47.8199 30 47.662C30.8285 47.662 31.6818 47.7937 32.5554 48.0444C45.8838 49.4375 70.512 43.2785 79.8462 8C81.9231 22.8732 91.0615 53.1155 111 55.0986C97.2923 62.9484 69.8769 82.1183 69.8769 96C62.4892 80.9174 45.3469 51.7163 32.5554 48.0444Z" fill="currentColor" />
    <path d="M1.48274 23.6626C0.956518 23.6066 0.460651 23.5299 0 23.4366C0.480734 23.4366 0.975851 23.5144 1.48274 23.6626C9.21655 24.4858 23.507 20.8464 28.9231 0C30.1282 8.78873 35.4308 26.6592 47 27.831C39.0462 32.4695 23.1385 43.7972 23.1385 52C18.8517 43.0875 8.90499 25.8324 1.48274 23.6626Z" fill="currentColor" />
  </symbol>
  <symbol id="stars-cat-1-mobile" width="35" height="53" viewBox="0 0 35 53" fill="none" xmlns="http://www.w3.org/2000/svg">
    <path d="M1.86131 17.0333C1.20074 16.9622 0.578264 16.8649 0 16.7465C0.603475 16.7465 1.225 16.8453 1.86131 17.0333C11.5697 18.0781 29.5088 13.4588 36.3077 -13C37.8205 -1.84507 44.4769 20.8366 59 22.3239C49.0154 28.2113 29.0462 42.5887 29.0462 53C23.6649 41.688 11.1786 19.7872 1.86131 17.0333Z" fill="#F6D814" />
  </symbol>
  <symbol id="stars-cat-2-mobile" width="66" height="94" viewBox="0 0 66 94" fill="none" xmlns="http://www.w3.org/2000/svg">
    <path d="M14.1137 54.2187C13.3635 54.14 12.6567 54.0324 12 53.9014C12.6853 53.9014 13.3911 54.0107 14.1137 54.2187C25.1385 55.3743 45.51 50.2651 53.2308 21C54.9487 33.338 62.5077 58.4254 79 60.0704C67.6615 66.5822 44.9846 82.4845 44.9846 94C38.8737 81.4883 24.6943 57.2647 14.1137 54.2187Z" fill="#F6D814" />
    <path d="M1.16726 19.1121C0.753003 19.0669 0.36264 19.0049 0 18.9296C0.37845 18.9296 0.768222 18.9924 1.16726 19.1121C7.25558 19.777 18.5055 16.8374 22.7692 0C23.7179 7.09859 27.8923 21.5324 37 22.4789C30.7385 26.2254 18.2154 35.3746 18.2154 42C14.8407 34.8015 7.01031 20.8646 1.16726 19.1121Z" fill="#F6D814" />
  </symbol>
</svg>
