<svg style="display:none" xmlns="http://www.w3.org/2000/svg" xmlns:xlink="http://www.w3.org/1999/xlink" version="1.1">
	<symbol id="search" xmlns="http://www.w3.org/2000/svg" viewBox="0 -960 960 960" fill="currentColor"><path d="M784-120 532-372q-30 24-69 38t-83 14q-109 0-184.5-75.5T120-580q0-109 75.5-184.5T380-840q109 0 184.5 75.5T640-580q0 44-14 83t-38 69l252 252-56 56ZM380-400q75 0 127.5-52.5T560-580q0-75-52.5-127.5T380-760q-75 0-127.5 52.5T200-580q0 75 52.5 127.5T380-400Z"/></symbol>
	<symbol id="shopping_bag" xmlns="http://www.w3.org/2000/svg" viewBox="0 -960 960 960" fill="currentColor"><path d="M240-80q-33 0-56.5-23.5T160-160v-480q0-33 23.5-56.5T240-720h80q0-66 47-113t113-47q66 0 113 47t47 113h80q33 0 56.5 23.5T800-640v480q0 33-23.5 56.5T720-80H240Zm0-80h480v-480h-80v80q0 17-11.5 28.5T600-520q-17 0-28.5-11.5T560-560v-80H400v80q0 17-11.5 28.5T360-520q-17 0-28.5-11.5T320-560v-80h-80v480Zm160-560h160q0-33-23.5-56.5T480-800q-33 0-56.5 23.5T400-720ZM240-160v-480 480Z"/></symbol>
	<symbol id="menu" xmlns="http://www.w3.org/2000/svg" viewBox="0 -960 960 960" fill="currentColor"><path d="M120-240v-80h720v80H120Zm0-200v-80h720v80H120Zm0-200v-80h720v80H120Z"/></symbol>
	<symbol id="account_circle" xmlns="http://www.w3.org/2000/svg" viewBox="0 -960 960 960" fill="currentColor"><path d="M234-276q51-39 114-61.5T480-360q69 0 132 22.5T726-276q35-41 54.5-93T800-480q0-133-93.5-226.5T480-800q-133 0-226.5 93.5T160-480q0 59 19.5 111t54.5 93Zm246-164q-59 0-99.5-40.5T340-580q0-59 40.5-99.5T480-720q59 0 99.5 40.5T620-580q0 59-40.5 99.5T480-440Zm0 360q-83 0-156-31.5T197-197q-54-54-85.5-127T80-480q0-83 31.5-156T197-763q54-54 127-85.5T480-880q83 0 156 31.5T763-763q54 54 85.5 127T880-480q0 83-31.5 156T763-197q-54 54-127 85.5T480-80Zm0-80q53 0 100-15.5t86-44.5q-39-29-86-44.5T480-280q-53 0-100 15.5T294-220q39 29 86 44.5T480-160Zm0-360q26 0 43-17t17-43q0-26-17-43t-43-17q-26 0-43 17t-17 43q0 26 17 43t43 17Zm0-60Zm0 360Z"/></symbol>
	<symbol id="close" xmlns="http://www.w3.org/2000/svg" viewBox="0 -960 960 960" fill="currentColor"><path d="m256-200-56-56 224-224-224-224 56-56 224 224 224-224 56 56-224 224 224 224-56 56-224-224-224 224Z"/></symbol>
	<symbol id="chevron-right" xmlns="http://www.w3.org/2000/svg" viewBox="0 -960 960 960" fill="currentColor"><path d="M504-480 320-664l56-56 240 240-240 240-56-56 184-184Z"/></symbol>
	<symbol id="chevron-right-institutional" width="16" height="16" viewBox="0 0 16 16" fill="none" xmlns="http://www.w3.org/2000/svg"><path d="M6 12L10 8L6 4" stroke="currentColor" stroke-linecap="round" stroke-linejoin="round"/></symbol>
	<symbol id="chevron-up" width="24" height="24" viewBox="0 0 24 24" fill="none" xmlns="http://www.w3.org/2000/svg"><path d="M17 11L12 6L7 11" stroke="#FF8300" stroke-width="2" stroke-linecap="round" stroke-linejoin="round"/><path d="M17 18L12 13L7 18" stroke="#FF8300" stroke-width="2" stroke-linecap="round" stroke-linejoin="round"/></symbol>
	<symbol id="favorite" xmlns="http://www.w3.org/2000/svg" viewBox="0 -960 960 960" fill="currentColor"><path d="m480-120-58-52q-101-91-167-157T150-447.5Q111-500 95.5-544T80-634q0-94 63-157t157-63q52 0 99 22t81 62q34-40 81-62t99-22q94 0 157 63t63 157q0 46-15.5 90T810-447.5Q771-395 705-329T538-172l-58 52Zm0-108q96-86 158-147.5t98-107q36-45.5 50-81t14-70.5q0-60-40-100t-100-40q-47 0-87 26.5T518-680h-76q-15-41-55-67.5T300-774q-60 0-100 40t-40 100q0 35 14 70.5t50 81q36 45.5 98 107T480-228Zm0-273Z"/></symbol>
	<symbol id="home_pin" xmlns="http://www.w3.org/2000/svg" viewBox="0 -960 960 960" fill="currentColor"><path d="M360-440h80v-110h80v110h80v-190l-120-80-120 80v190Zm120 254q122-112 181-203.5T720-552q0-109-69.5-178.5T480-800q-101 0-170.5 69.5T240-552q0 71 59 162.5T480-186Zm0 106Q319-217 239.5-334.5T160-552q0-150 96.5-239T480-880q127 0 223.5 89T800-552q0 100-79.5 217.5T480-80Zm0-480Z"/></symbol>
	<symbol id="home_icon" width="14" height="14" viewBox="0 0 14 14" fill="none" xmlns="http://www.w3.org/2000/svg"><path d="M1.75 5.25033L7 1.16699L12.25 5.25033V11.667C12.25 11.9764 12.1271 12.2732 11.9083 12.492C11.6895 12.7107 11.3928 12.8337 11.0833 12.8337H2.91667C2.60725 12.8337 2.3105 12.7107 2.09171 12.492C1.87292 12.2732 1.75 11.9764 1.75 11.667V5.25033Z" stroke="#FF8300" stroke-linecap="round" stroke-linejoin="round"/><path d="M5.25 12.8333V7H8.75V12.8333" stroke="#FF8300" stroke-linecap="round" stroke-linejoin="round"/></symbol>
	<symbol id="call" xmlns="http://www.w3.org/2000/svg" viewBox="0 -960 960 960" fill="currentColor"><path d="M798-120q-125 0-247-54.5T329-329Q229-429 174.5-551T120-798q0-18 12-30t30-12h162q14 0 25 9.5t13 22.5l26 140q2 16-1 27t-11 19l-97 98q20 37 47.5 71.5T387-386q31 31 65 57.5t72 48.5l94-94q9-9 23.5-13.5T670-390l138 28q14 4 23 14.5t9 23.5v162q0 18-12 30t-30 12ZM241-600l66-66-17-94h-89q5 41 14 81t26 79Zm358 358q39 17 79.5 27t81.5 13v-88l-94-19-67 67ZM241-600Zm358 358Z"/></symbol>
	<symbol id="local_shipping" xmlns="http://www.w3.org/2000/svg" viewBox="0 -960 960 960" fill="currentColor"><path d="M240-160q-50 0-85-35t-35-85H40v-440q0-33 23.5-56.5T120-800h560v160h120l120 160v200h-80q0 50-35 85t-85 35q-50 0-85-35t-35-85H360q0 50-35 85t-85 35Zm0-80q17 0 28.5-11.5T280-280q0-17-11.5-28.5T240-320q-17 0-28.5 11.5T200-280q0 17 11.5 28.5T240-240ZM120-360h32q17-18 39-29t49-11q27 0 49 11t39 29h272v-360H120v360Zm600 120q17 0 28.5-11.5T760-280q0-17-11.5-28.5T720-320q-17 0-28.5 11.5T680-280q0 17 11.5 28.5T720-240Zm-40-200h170l-90-120h-80v120ZM360-540Z"/></symbol>
	<symbol id="pan_zoom" xmlns="http://www.w3.org/2000/svg" viewBox="0 -960 960 960" fill="currentColor"><path d="M120-120v-240h80v104l124-124 56 56-124 124h104v80H120Zm516-460-56-56 124-124H600v-80h240v240h-80v-104L636-580Z"/></symbol>
	<symbol id="share" xmlns="http://www.w3.org/2000/svg" viewBox="0 -960 960 960" fill="currentColor"><path d="M720-80q-50 0-85-35t-35-85q0-7 1-14.5t3-13.5L322-392q-17 15-38 23.5t-44 8.5q-50 0-85-35t-35-85q0-50 35-85t85-35q23 0 44 8.5t38 23.5l282-164q-2-6-3-13.5t-1-14.5q0-50 35-85t85-35q50 0 85 35t35 85q0 50-35 85t-85 35q-23 0-44-8.5T638-672L356-508q2 6 3 13.5t1 14.5q0 7-1 14.5t-3 13.5l282 164q17-15 38-23.5t44-8.5q50 0 85 35t35 85q0 50-35 85t-85 35Zm0-640q17 0 28.5-11.5T760-760q0-17-11.5-28.5T720-800q-17 0-28.5 11.5T680-760q0 17 11.5 28.5T720-720ZM240-440q17 0 28.5-11.5T280-480q0-17-11.5-28.5T240-520q-17 0-28.5 11.5T200-480q0 17 11.5 28.5T240-440Zm480 280q17 0 28.5-11.5T760-200q0-17-11.5-28.5T720-240q-17 0-28.5 11.5T680-200q0 17 11.5 28.5T720-160Zm0-600ZM240-480Zm480 280Z"/></symbol>
	<symbol id="sell" xmlns="http://www.w3.org/2000/svg" viewBox="0 -960 960 960" fill="currentColor"><path d="M856-390 570-104q-12 12-27 18t-30 6q-15 0-30-6t-27-18L103-457q-11-11-17-25.5T80-513v-287q0-33 23.5-56.5T160-880h287q16 0 31 6.5t26 17.5l352 353q12 12 17.5 27t5.5 30q0 15-5.5 29.5T856-390ZM513-160l286-286-353-354H160v286l353 354ZM260-640q25 0 42.5-17.5T320-700q0-25-17.5-42.5T260-760q-25 0-42.5 17.5T200-700q0 25 17.5 42.5T260-640Zm220 160Z"/></symbol>
	<symbol id="check-circle" xmlns="http://www.w3.org/2000/svg" viewBox="0 -960 960 960" fill="currentColor"><path d="m424-296 282-282-56-56-226 226-114-114-56 56 170 170Zm56 216q-83 0-156-31.5T197-197q-54-54-85.5-127T80-480q0-83 31.5-156T197-763q54-54 127-85.5T480-880q83 0 156 31.5T763-763q54 54 85.5 127T880-480q0 83-31.5 156T763-197q-54 54-127 85.5T480-80Zm0-80q134 0 227-93t93-227q0-134-93-227t-227-93q-134 0-227 93t-93 227q0 134 93 227t227 93Zm0-320Z"/></symbol>
	<symbol id="error" xmlns="http://www.w3.org/2000/svg" viewBox="0 -960 960 960" fill="currentColor"><path d="M480-280q17 0 28.5-11.5T520-320q0-17-11.5-28.5T480-360q-17 0-28.5 11.5T440-320q0 17 11.5 28.5T480-280Zm-40-160h80v-240h-80v240Zm40 360q-83 0-156-31.5T197-197q-54-54-85.5-127T80-480q0-83 31.5-156T197-763q54-54 127-85.5T480-880q83 0 156 31.5T763-763q54 54 85.5 127T880-480q0 83-31.5 156T763-197q-54 54-127 85.5T480-80Zm0-80q134 0 227-93t93-227q0-134-93-227t-227-93q-134 0-227 93t-93 227q0 134 93 227t227 93Zm0-320Z"/></symbol>
	<symbol id="trash" xmlns="http://www.w3.org/2000/svg" viewBox="0 -960 960 960" fill="currentColor"><path d="M280-120q-33 0-56.5-23.5T200-200v-520h-40v-80h200v-40h240v40h200v80h-40v520q0 33-23.5 56.5T680-120H280Zm400-600H280v520h400v-520ZM360-280h80v-360h-80v360Zm160 0h80v-360h-80v360ZM280-720v520-520Z"/></symbol>
	<symbol id="close-search" viewBox="0 0 20 20" fill="none" xmlns="http://www.w3.org/2000/svg">
		<path d="M15 5L5 15" stroke="currentColor" stroke-width="2" stroke-linecap="round" stroke-linejoin="round"/>
		<path d="M5 5L15 15" stroke="currentColor" stroke-width="2" stroke-linecap="round" stroke-linejoin="round"/>
	</symbol>
	<symbol id="location_pin" viewBox="0 0 20 21" fill="none" xmlns="http://www.w3.org/2000/svg">
		<g clip-path="url(#clip0_504_27497)">
			<path d="M17.5 8.83337C17.5 14.6667 10 19.6667 10 19.6667C10 19.6667 2.5 14.6667 2.5 8.83337C2.5 6.84425 3.29018 4.9366 4.6967 3.53007C6.10322 2.12355 8.01088 1.33337 10 1.33337C11.9891 1.33337 13.8968 2.12355 15.3033 3.53007C16.7098 4.9366 17.5 6.84425 17.5 8.83337Z" stroke="currentColor" stroke-width="2" stroke-linecap="round" stroke-linejoin="round"/>
			<path d="M10 11.3334C11.3807 11.3334 12.5 10.2141 12.5 8.83337C12.5 7.45266 11.3807 6.33337 10 6.33337C8.61929 6.33337 7.5 7.45266 7.5 8.83337C7.5 10.2141 8.61929 11.3334 10 11.3334Z" stroke="currentColor" stroke-width="2" stroke-linecap="round" stroke-linejoin="round"/>
		</g>
		<defs>
			<clipPath id="clip0_504_27497">
			<rect width="20" height="20" fill="white" transform="translate(0 0.5)"/>
			</clipPath>
		</defs>
	</symbol>
	<symbol id="plus" width="20" height="21" viewBox="0 0 20 21" fill="none" xmlns="http://www.w3.org/2000/svg">
		<path d="M10 4.93213V16.5988" stroke="currentColor" stroke-width="2" stroke-linecap="round" stroke-linejoin="round"/>
		<path d="M4.16699 10.7656H15.8337" stroke="currentColor" stroke-width="2" stroke-linecap="round" stroke-linejoin="round"/>
	</symbol>
	<symbol id="minus" width="24" height="24" viewBox="0 0 24 24" fill="none" xmlns="http://www.w3.org/2000/svg">
		<path d="M5 12H19" stroke="currentColor" stroke-width="2" stroke-linecap="round" stroke-linejoin="round"/>
	</symbol>
	<symbol id="cashback-coin" width="17" height="17" viewBox="0 0 17 17" fill="none" xmlns="http://www.w3.org/2000/svg">
		<g clip-path="url(#clip0_29_528)">
			<path d="M6.15625 6.40625C6.15625 7.64944 6.65011 8.84175 7.52919 9.72081C8.40825 10.5999 9.60056 11.0938 10.8438 11.0938C12.0869 11.0938 13.2793 10.5999 14.1583 9.72081C15.0374 8.84175 15.5312 7.64944 15.5312 6.40625C15.5312 5.16305 15.0374 3.97076 14.1583 3.09169C13.2793 2.21261 12.0869 1.71875 10.8438 1.71875C9.60056 1.71875 8.40825 2.21261 7.52919 3.09169C6.65011 3.97076 6.15625 5.16305 6.15625 6.40625Z" stroke="currentColor" stroke-width="1.11551" stroke-linecap="round" stroke-linejoin="round"/>
			<path d="M4.98438 10.0575C4.98439 10.225 5.03459 10.3887 5.1285 10.5274C5.22241 10.6661 5.35573 10.7734 5.51125 10.8356L6.80125 11.3519C6.98191 11.4246 7.13164 11.5579 7.22477 11.7289C7.31788 11.8999 7.34862 12.098 7.31169 12.2892C7.27475 12.4804 7.17239 12.6527 7.02224 12.7767C6.87209 12.9007 6.68348 12.9686 6.48875 12.9687H5.21875" stroke="currentColor" stroke-width="1.11551" stroke-linecap="round" stroke-linejoin="round"/>
			<path d="M6.15625 13.9062V12.9688" stroke="currentColor" stroke-width="1.11551" stroke-linecap="round" stroke-linejoin="round"/>
			<path d="M4.30068 6.79184C3.59737 7.09426 2.97884 7.56431 2.49914 8.161C2.01944 8.75763 1.69317 9.46269 1.54887 10.2146C1.40456 10.9664 1.44661 11.7421 1.67132 12.474C1.89604 13.2059 2.29658 13.8715 2.83795 14.4129C3.37932 14.9542 4.04504 15.3546 4.77691 15.5793C5.50879 15.8039 6.28454 15.8459 7.03637 15.7015C7.78819 15.5571 8.49325 15.2308 9.08987 14.751C9.68644 14.2713 10.1564 13.6527 10.4588 12.9493" stroke="currentColor" stroke-width="1.11551" stroke-linecap="round" stroke-linejoin="round"/>
			<path d="M11.7807 4.53125H10.51C10.3153 4.53139 10.1267 4.59927 9.97654 4.72327C9.82642 4.84727 9.7241 5.01964 9.6871 5.21084C9.65016 5.40203 9.68091 5.60012 9.77404 5.77114C9.86716 5.94216 10.0169 6.07544 10.1975 6.14812L11.4875 6.66438C11.6682 6.73706 11.8179 6.87034 11.911 7.04136C12.0042 7.21238 12.0349 7.41047 11.998 7.60169C11.961 7.79287 11.8587 7.96525 11.7085 8.08925C11.5584 8.21325 11.3698 8.28113 11.175 8.28125H9.90566" stroke="currentColor" stroke-width="1.11551" stroke-linecap="round" stroke-linejoin="round"/>
			<path d="M10.8438 4.53125V3.59375" stroke="currentColor" stroke-width="1.11551" stroke-linecap="round" stroke-linejoin="round"/>
			<path d="M10.8438 9.21875V8.28125" stroke="currentColor" stroke-width="1.11551" stroke-linecap="round" stroke-linejoin="round"/>
		</g>
		<defs>
			<clipPath id="clip0_29_528">
				<rect width="17" height="15.5" fill="transparent" transform="translate(0 0.75)"/>
			</clipPath>
		</defs>
	</symbol>
	<symbol id="hanger" width="18" height="14" viewBox="0 0 18 14" fill="none" xmlns="http://www.w3.org/2000/svg">
		<path d="M10.7813 2.23333C10.7813 1.77362 10.594 1.33274 10.2606 1.00768C9.92724 0.682618 9.47505 0.5 9.00356 0.5C8.53206 0.5 8.07987 0.682618 7.74648 1.00768C7.41308 1.33274 7.22578 1.77362 7.22578 2.23333C7.22844 3.67807 7.82133 4.83333 9.00711 5.7H9L16.0853 9.5376C16.3626 9.68774 16.5937 9.90746 16.7545 10.174C16.9153 10.4405 17.0001 10.7442 17 11.0534V11.7667C17 12.2264 16.8127 12.6673 16.4793 12.9923C16.1459 13.3174 15.6937 13.5 15.2222 13.5H2.77778C2.30628 13.5 1.8541 13.3174 1.5207 12.9923C1.1873 12.6673 1 12.2264 1 11.7667V11.0534C0.999917 10.7442 1.08469 10.4405 1.24552 10.174C1.40635 9.90746 1.63739 9.68774 1.91467 9.5376L9 5.7" stroke="currentColor" stroke-linecap="round" stroke-linejoin="round"/>
	</symbol>
	<symbol id="ruler" width="18" height="20" viewBox="0 0 18 20" fill="none" xmlns="http://www.w3.org/2000/svg">
		<path d="M13.4444 1L17 5L4.55556 19L1 15L13.4444 1Z" stroke="currentColor" stroke-linecap="round" stroke-linejoin="round"/>
		<path d="M12.556 5L11.2227 3.5" stroke="currentColor" stroke-linecap="round" stroke-linejoin="round"/>
		<path d="M9.88802 8L8.55469 6.5" stroke="currentColor" stroke-linecap="round" stroke-linejoin="round"/>
		<path d="M7.22201 11L5.88867 9.5" stroke="currentColor" stroke-linecap="round" stroke-linejoin="round"/>
		<path d="M4.55599 14L3.22266 12.5" stroke="currentColor" stroke-linecap="round" stroke-linejoin="round"/>
	</symbol>
	<symbol id="hearth-unfill" width="20" height="20" viewBox="0 0 20 20" fill="none" xmlns="http://www.w3.org/2000/svg">
		<path d="M17.3671 3.84172C16.9415 3.41589 16.4361 3.0781 15.8799 2.84763C15.3237 2.61716 14.7275 2.49854 14.1254 2.49854C13.5234 2.49854 12.9272 2.61716 12.371 2.84763C11.8147 3.0781 11.3094 3.41589 10.8838 3.84172L10.0004 4.72506L9.11709 3.84172C8.25735 2.98198 7.09129 2.49898 5.87542 2.49898C4.65956 2.49898 3.4935 2.98198 2.63376 3.84172C1.77401 4.70147 1.29102 5.86753 1.29102 7.08339C1.29102 8.29925 1.77401 9.46531 2.63376 10.3251L3.51709 11.2084L10.0004 17.6917L16.4838 11.2084L17.3671 10.3251C17.7929 9.89943 18.1307 9.39407 18.3612 8.83785C18.5917 8.28164 18.7103 7.68546 18.7103 7.08339C18.7103 6.48132 18.5917 5.88514 18.3612 5.32893C18.1307 4.77271 17.7929 4.26735 17.3671 3.84172Z" stroke="currentColor" stroke-width="2" stroke-linecap="round" stroke-linejoin="round"/>
	</symbol>
	<symbol id="hearth-fill" width="20" height="20" viewBox="0 0 20 20" fill="none" xmlns="http://www.w3.org/2000/svg">
		<path d="M17.3671 3.84172C16.9415 3.41589 16.4361 3.0781 15.8799 2.84763C15.3237 2.61716 14.7275 2.49854 14.1254 2.49854C13.5234 2.49854 12.9272 2.61716 12.371 2.84763C11.8147 3.0781 11.3094 3.41589 10.8838 3.84172L10.0004 4.72506L9.11709 3.84172C8.25735 2.98198 7.09129 2.49898 5.87542 2.49898C4.65956 2.49898 3.4935 2.98198 2.63376 3.84172C1.77401 4.70147 1.29102 5.86753 1.29102 7.08339C1.29102 8.29925 1.77401 9.46531 2.63376 10.3251L3.51709 11.2084L10.0004 17.6917L16.4838 11.2084L17.3671 10.3251C17.7929 9.89943 18.1307 9.39407 18.3612 8.83785C18.5917 8.28164 18.7103 7.68546 18.7103 7.08339C18.7103 6.48132 18.5917 5.88514 18.3612 5.32893C18.1307 4.77271 17.7929 4.26735 17.3671 3.84172Z" fill="currentColor" stroke="currentColor" stroke-width="2" stroke-linecap="round" stroke-linejoin="round"/>
	</symbol>
</svg>
