<svg style="display: none" xmlns="http://www.w3.org/2000/svg" xmlns:xlink="http://www.w3.org/1999/xlink" version="1.1">
  <symbol id="search" xmlns="http://www.w3.org/2000/svg" viewBox="0 -960 960 960" fill="currentColor"><path d="M784-120 532-372q-30 24-69 38t-83 14q-109 0-184.5-75.5T120-580q0-109 75.5-184.5T380-840q109 0 184.5 75.5T640-580q0 44-14 83t-38 69l252 252-56 56ZM380-400q75 0 127.5-52.5T560-580q0-75-52.5-127.5T380-760q-75 0-127.5 52.5T200-580q0 75 52.5 127.5T380-400Z" /></symbol>
  <symbol id="shopping_bag" xmlns="http://www.w3.org/2000/svg" viewBox="0 -960 960 960" fill="currentColor"><path d="M240-80q-33 0-56.5-23.5T160-160v-480q0-33 23.5-56.5T240-720h80q0-66 47-113t113-47q66 0 113 47t47 113h80q33 0 56.5 23.5T800-640v480q0 33-23.5 56.5T720-80H240Zm0-80h480v-480h-80v80q0 17-11.5 28.5T600-520q-17 0-28.5-11.5T560-560v-80H400v80q0 17-11.5 28.5T360-520q-17 0-28.5-11.5T320-560v-80h-80v480Zm160-560h160q0-33-23.5-56.5T480-800q-33 0-56.5 23.5T400-720ZM240-160v-480 480Z" /></symbol>
  <symbol id="menu" xmlns="http://www.w3.org/2000/svg" viewBox="0 -960 960 960" fill="currentColor"><path d="M120-240v-80h720v80H120Zm0-200v-80h720v80H120Zm0-200v-80h720v80H120Z" /></symbol>
  <symbol id="account_circle" xmlns="http://www.w3.org/2000/svg" viewBox="0 -960 960 960" fill="currentColor"><path d="M234-276q51-39 114-61.5T480-360q69 0 132 22.5T726-276q35-41 54.5-93T800-480q0-133-93.5-226.5T480-800q-133 0-226.5 93.5T160-480q0 59 19.5 111t54.5 93Zm246-164q-59 0-99.5-40.5T340-580q0-59 40.5-99.5T480-720q59 0 99.5 40.5T620-580q0 59-40.5 99.5T480-440Zm0 360q-83 0-156-31.5T197-197q-54-54-85.5-127T80-480q0-83 31.5-156T197-763q54-54 127-85.5T480-880q83 0 156 31.5T763-763q54 54 85.5 127T880-480q0 83-31.5 156T763-197q-54 54-127 85.5T480-80Zm0-80q53 0 100-15.5t86-44.5q-39-29-86-44.5T480-280q-53 0-100 15.5T294-220q39 29 86 44.5T480-160Zm0-360q26 0 43-17t17-43q0-26-17-43t-43-17q-26 0-43 17t-17 43q0 26 17 43t43 17Zm0-60Zm0 360Z" /></symbol>
  <symbol id="close" xmlns="http://www.w3.org/2000/svg" viewBox="0 -960 960 960" fill="currentColor"><path d="m256-200-56-56 224-224-224-224 56-56 224 224 224-224 56 56-224 224 224 224-56 56-224-224-224 224Z" /></symbol>
  <symbol id="chevron-right" xmlns="http://www.w3.org/2000/svg" viewBox="0 0 20 20" fill="none">
    <path d="M7.5 15L12.5 10L7.5 5" stroke="currentColor" stroke-width="2" stroke-linecap="round" stroke-linejoin="round" />
  </symbol>
  <symbol id="chevron-right-institutional" width="16" height="16" viewBox="0 0 16 16" fill="none" xmlns="http://www.w3.org/2000/svg"><path d="M6 12L10 8L6 4" stroke="currentColor" stroke-linecap="round" stroke-linejoin="round" /></symbol>
  <symbol id="chevron-up" width="24" height="24" viewBox="0 0 24 24" fill="none" xmlns="http://www.w3.org/2000/svg">
    <path d="M17 11L12 6L7 11" stroke="currentColor" stroke-width="2" stroke-linecap="round" stroke-linejoin="round" />
    <path d="M17 18L12 13L7 18" stroke="currentColor" stroke-width="2" stroke-linecap="round" stroke-linejoin="round" />
    <path d="M17 11L12 6L7 11" stroke="#FF8300" stroke-width="2" stroke-linecap="round" stroke-linejoin="round" />
    <path d="M17 18L12 13L7 18" stroke="#FF8300" stroke-width="2" stroke-linecap="round" stroke-linejoin="round" />
  </symbol>
  <symbol id="favorite" xmlns="http://www.w3.org/2000/svg" viewBox="0 -960 960 960" fill="currentColor"><path d="m480-120-58-52q-101-91-167-157T150-447.5Q111-500 95.5-544T80-634q0-94 63-157t157-63q52 0 99 22t81 62q34-40 81-62t99-22q94 0 157 63t63 157q0 46-15.5 90T810-447.5Q771-395 705-329T538-172l-58 52Zm0-108q96-86 158-147.5t98-107q36-45.5 50-81t14-70.5q0-60-40-100t-100-40q-47 0-87 26.5T518-680h-76q-15-41-55-67.5T300-774q-60 0-100 40t-40 100q0 35 14 70.5t50 81q36 45.5 98 107T480-228Zm0-273Z" /></symbol>
  <symbol id="chevron-left" viewBox="0 0 20 20" fill="none" xmlns="http://www.w3.org/2000/svg">
    <path d="M12.5 15L7.5 10L12.5 5" stroke="currentColor" stroke-width="2" stroke-linecap="round" stroke-linejoin="round" />
  </symbol>
  <symbol id="chevron-down" viewBox="0 0 20 20" fill="none" xmlns="http://www.w3.org/2000/svg">
    <path d="M5 7.5L10 12.5L15 7.5" stroke="currentColor" stroke-width="1.5" stroke-linecap="round" stroke-linejoin="round" />
  </symbol>
  <symbol id="favorite" xmlns="http://www.w3.org/2000/svg" viewBox="0 -960 960 960" fill="currentColor"><path d="m480-120-58-52q-101-91-167-157T150-447.5Q111-500 95.5-544T80-634q0-94 63-157t157-63q52 0 99 22t81 62q34-40 81-62t99-22q94 0 157 63t63 157q0 46-15.5 90T810-447.5Q771-395 705-329T538-172l-58 52Zm0-108q96-86 158-147.5t98-107q36-45.5 50-81t14-70.5q0-60-40-100t-100-40q-47 0-87 26.5T518-680h-76q-15-41-55-67.5T300-774q-60 0-100 40t-40 100q0 35 14 70.5t50 81q36 45.5 98 107T480-228Zm0-273Z" /></symbol>
  <symbol id="home_pin" xmlns="http://www.w3.org/2000/svg" viewBox="0 -960 960 960" fill="currentColor"><path d="M360-440h80v-110h80v110h80v-190l-120-80-120 80v190Zm120 254q122-112 181-203.5T720-552q0-109-69.5-178.5T480-800q-101 0-170.5 69.5T240-552q0 71 59 162.5T480-186Zm0 106Q319-217 239.5-334.5T160-552q0-150 96.5-239T480-880q127 0 223.5 89T800-552q0 100-79.5 217.5T480-80Zm0-480Z" /></symbol>
  <symbol id="call" xmlns="http://www.w3.org/2000/svg" viewBox="0 -960 960 960" fill="currentColor"><path d="M798-120q-125 0-247-54.5T329-329Q229-429 174.5-551T120-798q0-18 12-30t30-12h162q14 0 25 9.5t13 22.5l26 140q2 16-1 27t-11 19l-97 98q20 37 47.5 71.5T387-386q31 31 65 57.5t72 48.5l94-94q9-9 23.5-13.5T670-390l138 28q14 4 23 14.5t9 23.5v162q0 18-12 30t-30 12ZM241-600l66-66-17-94h-89q5 41 14 81t26 79Zm358 358q39 17 79.5 27t81.5 13v-88l-94-19-67 67ZM241-600Zm358 358Z" /></symbol>
  <symbol id="local_shipping" xmlns="http://www.w3.org/2000/svg" viewBox="0 -960 960 960" fill="currentColor"><path d="M240-160q-50 0-85-35t-35-85H40v-440q0-33 23.5-56.5T120-800h560v160h120l120 160v200h-80q0 50-35 85t-85 35q-50 0-85-35t-35-85H360q0 50-35 85t-85 35Zm0-80q17 0 28.5-11.5T280-280q0-17-11.5-28.5T240-320q-17 0-28.5 11.5T200-280q0 17 11.5 28.5T240-240ZM120-360h32q17-18 39-29t49-11q27 0 49 11t39 29h272v-360H120v360Zm600 120q17 0 28.5-11.5T760-280q0-17-11.5-28.5T720-320q-17 0-28.5 11.5T680-280q0 17 11.5 28.5T720-240Zm-40-200h170l-90-120h-80v120ZM360-540Z" /></symbol>
  <symbol id="pan_zoom" xmlns="http://www.w3.org/2000/svg" viewBox="0 -960 960 960" fill="currentColor"><path d="M120-120v-240h80v104l124-124 56 56-124 124h104v80H120Zm516-460-56-56 124-124H600v-80h240v240h-80v-104L636-580Z" /></symbol>
  <symbol id="share" xmlns="http://www.w3.org/2000/svg" viewBox="0 -960 960 960" fill="currentColor"><path d="M720-80q-50 0-85-35t-35-85q0-7 1-14.5t3-13.5L322-392q-17 15-38 23.5t-44 8.5q-50 0-85-35t-35-85q0-50 35-85t85-35q23 0 44 8.5t38 23.5l282-164q-2-6-3-13.5t-1-14.5q0-50 35-85t85-35q50 0 85 35t35 85q0 50-35 85t-85 35q-23 0-44-8.5T638-672L356-508q2 6 3 13.5t1 14.5q0 7-1 14.5t-3 13.5l282 164q17-15 38-23.5t44-8.5q50 0 85 35t35 85q0 50-35 85t-85 35Zm0-640q17 0 28.5-11.5T760-760q0-17-11.5-28.5T720-800q-17 0-28.5 11.5T680-760q0 17 11.5 28.5T720-720ZM240-440q17 0 28.5-11.5T280-480q0-17-11.5-28.5T240-520q-17 0-28.5 11.5T200-480q0 17 11.5 28.5T240-440Zm480 280q17 0 28.5-11.5T760-200q0-17-11.5-28.5T720-240q-17 0-28.5 11.5T680-200q0 17 11.5 28.5T720-160Zm0-600ZM240-480Zm480 280Z" /></symbol>
  <symbol id="sell" xmlns="http://www.w3.org/2000/svg" viewBox="0 -960 960 960" fill="currentColor"><path d="M856-390 570-104q-12 12-27 18t-30 6q-15 0-30-6t-27-18L103-457q-11-11-17-25.5T80-513v-287q0-33 23.5-56.5T160-880h287q16 0 31 6.5t26 17.5l352 353q12 12 17.5 27t5.5 30q0 15-5.5 29.5T856-390ZM513-160l286-286-353-354H160v286l353 354ZM260-640q25 0 42.5-17.5T320-700q0-25-17.5-42.5T260-760q-25 0-42.5 17.5T200-700q0 25 17.5 42.5T260-640Zm220 160Z" /></symbol>
  <symbol id="check-circle" xmlns="http://www.w3.org/2000/svg" viewBox="0 -960 960 960" fill="currentColor"><path d="m424-296 282-282-56-56-226 226-114-114-56 56 170 170Zm56 216q-83 0-156-31.5T197-197q-54-54-85.5-127T80-480q0-83 31.5-156T197-763q54-54 127-85.5T480-880q83 0 156 31.5T763-763q54 54 85.5 127T880-480q0 83-31.5 156T763-197q-54 54-127 85.5T480-80Zm0-80q134 0 227-93t93-227q0-134-93-227t-227-93q-134 0-227 93t-93 227q0 134 93 227t227 93Zm0-320Z" /></symbol>
  <symbol id="error" xmlns="http://www.w3.org/2000/svg" viewBox="0 -960 960 960" fill="currentColor"><path d="M480-280q17 0 28.5-11.5T520-320q0-17-11.5-28.5T480-360q-17 0-28.5 11.5T440-320q0 17 11.5 28.5T480-280Zm-40-160h80v-240h-80v240Zm40 360q-83 0-156-31.5T197-197q-54-54-85.5-127T80-480q0-83 31.5-156T197-763q54-54 127-85.5T480-880q83 0 156 31.5T763-763q54 54 85.5 127T880-480q0 83-31.5 156T763-197q-54 54-127 85.5T480-80Zm0-80q134 0 227-93t93-227q0-134-93-227t-227-93q-134 0-227 93t-93 227q0 134 93 227t227 93Zm0-320Z" /></symbol>
  <symbol id="trash" xmlns="http://www.w3.org/2000/svg" viewBox="0 -960 960 960" fill="currentColor"><path d="M280-120q-33 0-56.5-23.5T200-200v-520h-40v-80h200v-40h240v40h200v80h-40v520q0 33-23.5 56.5T680-120H280Zm400-600H280v520h400v-520ZM360-280h80v-360h-80v360Zm160 0h80v-360h-80v360ZM280-720v520-520Z" /></symbol>
  <symbol id="close-search" viewBox="0 0 20 20" fill="none" xmlns="http://www.w3.org/2000/svg">
    <path d="M15 5L5 15" stroke="currentColor" stroke-width="2" stroke-linecap="round" stroke-linejoin="round" />
    <path d="M5 5L15 15" stroke="currentColor" stroke-width="2" stroke-linecap="round" stroke-linejoin="round" />
  </symbol>
  <symbol id="home_icon" width="14" height="14" viewBox="0 0 14 14" fill="none" xmlns="http://www.w3.org/2000/svg">
    <path d="M1.75 5.25033L7 1.16699L12.25 5.25033V11.667C12.25 11.9764 12.1271 12.2732 11.9083 12.492C11.6895 12.7107 11.3928 12.8337 11.0833 12.8337H2.91667C2.60725 12.8337 2.3105 12.7107 2.09171 12.492C1.87292 12.2732 1.75 11.9764 1.75 11.667V5.25033Z" stroke="currentColor" stroke-linecap="round" stroke-linejoin="round" />
    <path d="M5.25 12.8333V7H8.75V12.8333" stroke="currentColor" stroke-linecap="round" stroke-linejoin="round" />
  </symbol>
  <symbol id="location_pin" viewBox="0 0 20 21" fill="none" xmlns="http://www.w3.org/2000/svg">
    <g clip-path="url(#clip0_504_27497)">
      <path d="M17.5 8.83337C17.5 14.6667 10 19.6667 10 19.6667C10 19.6667 2.5 14.6667 2.5 8.83337C2.5 6.84425 3.29018 4.9366 4.6967 3.53007C6.10322 2.12355 8.01088 1.33337 10 1.33337C11.9891 1.33337 13.8968 2.12355 15.3033 3.53007C16.7098 4.9366 17.5 6.84425 17.5 8.83337Z" stroke="currentColor" stroke-width="2" stroke-linecap="round" stroke-linejoin="round" />
      <path d="M10 11.3334C11.3807 11.3334 12.5 10.2141 12.5 8.83337C12.5 7.45266 11.3807 6.33337 10 6.33337C8.61929 6.33337 7.5 7.45266 7.5 8.83337C7.5 10.2141 8.61929 11.3334 10 11.3334Z" stroke="currentColor" stroke-width="2" stroke-linecap="round" stroke-linejoin="round" />
    </g>
    <defs>
      <clipPath id="clip0_504_27497">
        <rect width="20" height="20" fill="white" transform="translate(0 0.5)" />
      </clipPath>
    </defs>
  </symbol>
  <symbol id="plus" width="20" height="21" viewBox="0 0 20 21" fill="none" xmlns="http://www.w3.org/2000/svg">
    <path d="M10 4.93213V16.5988" stroke="currentColor" stroke-width="2" stroke-linecap="round" stroke-linejoin="round" />
    <path d="M4.16699 10.7656H15.8337" stroke="currentColor" stroke-width="2" stroke-linecap="round" stroke-linejoin="round" />
  </symbol>
  <symbol id="minus" viewBox="0 0 24 24" fill="none" xmlns="http://www.w3.org/2000/svg">
    <path d="M5 12H19" stroke="currentColor" stroke-width="2" stroke-linecap="round" stroke-linejoin="round" />
  </symbol>
  <symbol id="home-breadcrumb" width="14" height="14" viewBox="0 0 14 14" fill="none" xmlns="http://www.w3.org/2000/svg">
    <path d="M1.75 5.25L7 1.16667L12.25 5.25V11.6667C12.25 11.9761 12.1271 12.2728 11.9083 12.4916C11.6895 12.7104 11.3928 12.8333 11.0833 12.8333H2.91667C2.60725 12.8333 2.3105 12.7104 2.09171 12.4916C1.87292 12.2728 1.75 11.9761 1.75 11.6667V5.25Z" stroke="currentColor" stroke-linecap="round" stroke-linejoin="round" />
    <path d="M5.25 12.8333V7H8.75V12.8333" stroke="currentColor" stroke-linecap="round" stroke-linejoin="round" />
  </symbol>
  <symbol id="cat_sort_orders:desc" width="21" height="20" viewBox="0 0 21 20" fill="none" xmlns="http://www.w3.org/2000/svg">
    <g clip-path="url(#clip0_175_10510)">
      <path d="M9.07129 18.9286H11.9284" stroke="currentColor" stroke-width="1.71429" stroke-linecap="round" stroke-linejoin="round" />
      <path d="M16.214 8.21429C16.214 6.69876 15.612 5.24531 14.5403 4.17367C13.4687 3.10204 12.0152 2.5 10.4997 2.5C8.98419 2.5 7.53075 3.10204 6.45911 4.17367C5.38748 5.24531 4.78544 6.69876 4.78544 8.21429V13.2143C4.78544 13.7826 4.55966 14.3277 4.15781 14.7296C3.75595 15.1314 3.21089 15.3571 2.64258 15.3571H18.3569C17.7886 15.3571 17.2434 15.1314 16.8416 14.7296C16.4397 14.3277 16.214 13.7826 16.214 13.2143V8.21429Z" stroke="currentColor" stroke-width="1.71429" stroke-linecap="round" stroke-linejoin="round" />
      <path d="M1.21387 8.02859C1.21464 6.66879 1.53892 5.32868 2.15992 4.11897C2.78092 2.90926 3.68082 1.86466 4.7853 1.07144" stroke="currentColor" stroke-width="1.71429" stroke-linecap="round" stroke-linejoin="round" />
      <path d="M19.7853 8.02859C19.7846 6.66879 19.4603 5.32868 18.8393 4.11897C18.2183 2.90926 17.3183 1.86466 16.2139 1.07144" stroke="currentColor" stroke-width="1.71429" stroke-linecap="round" stroke-linejoin="round" />
    </g>
    <defs>
      <clipPath id="clip0_175_10510">
        <rect width="20" height="20" fill="transparent" transform="translate(0.5)" />
      </clipPath>
    </defs>
  </symbol>
  <symbol id="cat_sort_price:asc" width="21" height="20" viewBox="0 0 21 20" fill="none" xmlns="http://www.w3.org/2000/svg">
    <g clip-path="url(#clip0_175_10515)">
      <path d="M14.0723 15H19.7865V9.28571" stroke="currentColor" stroke-width="1.71429" stroke-linecap="round" stroke-linejoin="round" />
      <path d="M19.7863 15L11.7148 6.92857C11.5813 6.7977 11.4018 6.72439 11.2148 6.72439C11.0279 6.72439 10.8484 6.7977 10.7148 6.92857L7.42913 10.2143C7.29562 10.3452 7.1161 10.4185 6.92913 10.4185C6.74216 10.4185 6.56264 10.3452 6.42913 10.2143L1.21484 5" stroke="currentColor" stroke-width="1.71429" stroke-linecap="round" stroke-linejoin="round" />
    </g>
    <defs>
      <clipPath id="clip0_175_10515">
        <rect width="20" height="20" fill="transparent" transform="translate(0.5)" />
      </clipPath>
    </defs>
  </symbol>
  <symbol id="cat_sort_price:desc" width="21" height="20" viewBox="0 0 21 20" fill="none" xmlns="http://www.w3.org/2000/svg">
    <g clip-path="url(#clip0_175_10520)">
      <path d="M14.0723 5H19.7865V10.7143" stroke="currentColor" stroke-width="1.71429" stroke-linecap="round" stroke-linejoin="round" />
      <path d="M19.7863 5L11.7148 13.0714C11.5813 13.2023 11.4018 13.2756 11.2148 13.2756C11.0279 13.2756 10.8484 13.2023 10.7148 13.0714L7.42913 9.78571C7.29562 9.65484 7.1161 9.58153 6.92913 9.58153C6.74216 9.58153 6.56264 9.65484 6.42913 9.78571L1.21484 15" stroke="currentColor" stroke-width="1.71429" stroke-linecap="round" stroke-linejoin="round" />
    </g>
    <defs>
      <clipPath id="clip0_175_10520">
        <rect width="20" height="20" fill="transparent" transform="translate(0.5)" />
      </clipPath>
    </defs>
  </symbol>
  <symbol id="cat_sort_discount:desc" width="20" height="20" viewBox="0 0 20 20" fill="none" xmlns="http://www.w3.org/2000/svg">
    <g clip-path="url(#clip0_24_80)">
      <path d="M5.78961 14.2104L13.2105 6.78954M7.72507 1.63077C8.75892 0.789745 10.2411 0.789745 11.2749 1.63077L11.7688 2.03255L12.3975 1.93155C13.7133 1.72013 14.997 2.4612 15.4718 3.70648L15.6987 4.3014L16.2935 4.52824C17.5388 5.00307 18.28 6.28666 18.0685 7.60251L17.9674 8.23115L18.3693 8.72505C19.2102 9.7589 19.2102 11.2411 18.3693 12.2749L17.9674 12.7688L18.0685 13.3974C18.28 14.7133 17.5388 15.9969 16.2935 16.4718L15.6987 16.6986L15.4718 17.2934C14.997 18.5388 13.7133 19.2798 12.3975 19.0683L11.7688 18.9674L11.2749 19.3692C10.2411 20.2103 8.75892 20.2103 7.72507 19.3692L7.23115 18.9674L6.60253 19.0683C5.28668 19.2798 4.00308 18.5388 3.52825 17.2934L3.30139 16.6986L2.70649 16.4718C1.46121 15.9969 0.720133 14.7133 0.931554 13.3974L1.03255 12.7688L0.630771 12.2749C-0.210257 11.2411 -0.210257 9.7589 0.630771 8.72505L1.03255 8.23115L0.931554 7.60251C0.720133 6.28666 1.46121 5.00307 2.70649 4.52824L3.30139 4.3014L3.52825 3.70648C4.00308 2.4612 5.28668 1.72013 6.60253 1.93155L7.23115 2.03255L7.72507 1.63077ZM6.53169 8.27371C6.94153 8.27371 7.27378 7.94146 7.27378 7.53162C7.27378 7.12178 6.94153 6.78954 6.53169 6.78954C6.12185 6.78954 5.78961 7.12178 5.78961 7.53162C5.78961 7.94146 6.12185 8.27371 6.53169 8.27371ZM12.4684 14.2104C12.8783 14.2104 13.2105 13.8782 13.2105 13.4683C13.2105 13.0585 12.8783 12.7262 12.4684 12.7262C12.0586 12.7262 11.7263 13.0585 11.7263 13.4683C11.7263 13.8782 12.0586 14.2104 12.4684 14.2104Z" stroke="currentColor" stroke-width="1.71429" stroke-linecap="round" stroke-linejoin="round" />
    </g>
    <defs>
      <clipPath id="clip0_24_80">
        <rect width="20" height="20" fill="transparent" />
      </clipPath>
    </defs>
  </symbol>
  <symbol id="cat_sort_release:desc" width="20" height="20" viewBox="0 0 20 20" fill="none" xmlns="http://www.w3.org/2000/svg">
    <g clip-path="url(#clip0_24_83)">
      <path d="M2.42854 3.14284C2.04966 3.14284 1.6863 3.29336 1.41839 3.56126C1.15048 3.82917 0.999969 4.19253 0.999969 4.57141V18.1428C0.999969 18.5217 1.15048 18.8851 1.41839 19.153C1.6863 19.4208 2.04966 19.5714 2.42854 19.5714H18.1428C18.5217 19.5714 18.8851 19.4208 19.153 19.153C19.4208 18.8851 19.5714 18.5217 19.5714 18.1428V4.57141C19.5714 4.19253 19.4208 3.82917 19.153 3.56126C18.8851 3.29336 18.5217 3.14284 18.1428 3.14284H15.2857M0.999969 8.14284H19.5714M5.28565 1V5.28571M15.2857 1V5.28571M5.28565 3.14284H12.4285" stroke="currentColor" stroke-width="1.71429" stroke-linecap="round" stroke-linejoin="round" />
    </g>
    <defs>
      <clipPath id="clip0_24_83">
        <rect width="20" height="20" fill="transparent" />
      </clipPath>
    </defs>
  </symbol>
  <symbol id="cat_sort_relevance:desc" width="21" height="20" viewBox="0 0 21 20" fill="none" xmlns="http://www.w3.org/2000/svg">
    <g clip-path="url(#clip0_175_10537)">
      <path d="M11.1999 1.55722L13.4714 6.14293C13.523 6.25933 13.6043 6.36015 13.7071 6.43535C13.8098 6.51053 13.9305 6.55749 14.0571 6.5715L19.0713 7.31436C19.2166 7.33302 19.3535 7.3926 19.466 7.48616C19.5786 7.5797 19.6623 7.70336 19.7072 7.84266C19.7522 7.98197 19.7565 8.1312 19.7198 8.2729C19.6832 8.41462 19.6069 8.54294 19.4999 8.64293L15.8856 12.2286C15.7935 12.3148 15.7242 12.4227 15.6843 12.5425C15.6443 12.6622 15.635 12.7901 15.657 12.9144L16.5285 17.9572C16.5538 18.1022 16.5378 18.2512 16.4825 18.3874C16.4272 18.5237 16.3348 18.6417 16.2156 18.7282C16.0966 18.8144 15.9556 18.8656 15.8089 18.8759C15.6622 18.886 15.5155 18.8549 15.3856 18.7857L10.8714 16.4C10.7558 16.3433 10.6287 16.3139 10.4999 16.3139C10.3712 16.3139 10.2441 16.3433 10.1285 16.4L5.61422 18.7857C5.48435 18.8549 5.33771 18.886 5.19098 18.8759C5.04425 18.8656 4.90332 18.8144 4.78425 18.7282C4.66517 18.6417 4.57271 18.5237 4.5174 18.3874C4.4621 18.2512 4.44614 18.1022 4.47137 17.9572L5.3428 12.8572C5.36488 12.7329 5.35554 12.6051 5.31562 12.4853C5.27571 12.3656 5.20647 12.2577 5.11422 12.1715L1.45709 8.64293C1.34889 8.54022 1.2728 8.40832 1.23803 8.26325C1.20327 8.11816 1.21132 7.9661 1.26121 7.8255C1.3111 7.6849 1.40069 7.56179 1.51913 7.47106C1.63757 7.38034 1.77977 7.3259 1.92851 7.31436L6.9428 6.5715C7.06937 6.55749 7.19005 6.51053 7.29282 6.43535C7.3956 6.36015 7.47685 6.25933 7.52851 6.14293L9.79994 1.55722C9.86179 1.42366 9.96057 1.31058 10.0846 1.23134C10.2086 1.15209 10.3528 1.10999 10.4999 1.10999C10.6471 1.10999 10.7913 1.15209 10.9153 1.23134C11.0393 1.31058 11.1381 1.42366 11.1999 1.55722Z" stroke="currentColor" stroke-width="1.71429" stroke-linecap="round" stroke-linejoin="round" />
    </g>
    <defs>
      <clipPath id="clip0_175_10537">
        <rect width="20" height="20" fill="transparent" transform="translate(0.5)" />
      </clipPath>
    </defs>
  </symbol>
  <symbol id="cat_sort_name:asc" width="20" height="20" viewBox="0 0 20 20" fill="none" xmlns="http://www.w3.org/2000/svg">
    <path d="M9.70398 6.6L5.20398 17.4C5.12398 17.6133 5.00398 17.78 4.84398 17.9C4.68398 18.02 4.50398 18.08 4.30398 18.08C4.01065 18.08 3.79065 18 3.64398 17.84C3.49732 17.6667 3.41732 17.4533 3.40398 17.2C3.40398 17.1067 3.42398 17 3.46398 16.88L8.54398 4.6C8.63732 4.37333 8.77065 4.2 8.94398 4.08C9.13065 3.96 9.33065 3.90667 9.54398 3.92C9.74398 3.92 9.93065 3.98 10.104 4.1C10.2773 4.22 10.404 4.38667 10.484 4.6L15.504 16.7C15.5573 16.8333 15.584 16.9667 15.584 17.1C15.584 17.3933 15.484 17.6333 15.284 17.82C15.0973 17.9933 14.884 18.08 14.644 18.08C14.444 18.08 14.2573 18.02 14.084 17.9C13.924 17.7667 13.804 17.6 13.724 17.4L9.18398 6.66L9.70398 6.6ZM6.00398 14.56L6.90398 12.64H12.564L12.904 14.56H6.00398Z" fill="currentColor" />
  </symbol>
  <symbol id="cat_sort_name:desc" width="20" height="20" viewBox="0 0 20 20" fill="none" xmlns="http://www.w3.org/2000/svg">
    <path d="M14.1054 4C14.3587 4 14.5987 4.09333 14.8254 4.28C15.0654 4.45333 15.1854 4.68667 15.1854 4.98C15.1854 5.19333 15.1121 5.40667 14.9654 5.62L6.82539 16.2L6.64539 16.08H13.9654C14.2454 16.08 14.4787 16.1667 14.6654 16.34C14.8654 16.5133 14.9654 16.7467 14.9654 17.04C14.9654 17.3067 14.8654 17.5333 14.6654 17.72C14.4787 17.9067 14.2454 18 13.9654 18H4.90539C4.61206 18 4.35872 17.9 4.14539 17.7C3.94539 17.4867 3.84539 17.2533 3.84539 17C3.84539 16.7867 3.92539 16.58 4.08539 16.38L12.2254 5.8L12.3854 5.92H5.60539C5.32539 5.92 5.08539 5.83333 4.88539 5.66C4.69872 5.47333 4.60539 5.23333 4.60539 4.94C4.60539 4.66 4.69872 4.43333 4.88539 4.26C5.08539 4.08667 5.32539 4 5.60539 4H14.1054Z" fill="currentColor" />
  </symbol>
  <symbol id="sort" width="16" height="16" viewBox="0 0 16 16" fill="none" xmlns="http://www.w3.org/2000/svg">
    <path d="M2.66536 8H9.33203" stroke="currentColor" stroke-width="1.2" stroke-linecap="round" stroke-linejoin="round" />
    <path d="M2.66536 4L13.332 4" stroke="currentColor" stroke-width="1.2" stroke-linecap="round" stroke-linejoin="round" />
    <path d="M2.66536 12H5.33203" stroke="currentColor" stroke-width="1.2" stroke-linecap="round" stroke-linejoin="round" />
  </symbol>
  <symbol id="cashback-coin" width="17" height="17" viewBox="0 0 17 17" fill="none" xmlns="http://www.w3.org/2000/svg">
    <g clip-path="url(#clip0_29_528)">
      <path d="M6.15625 6.40625C6.15625 7.64944 6.65011 8.84175 7.52919 9.72081C8.40825 10.5999 9.60056 11.0938 10.8438 11.0938C12.0869 11.0938 13.2793 10.5999 14.1583 9.72081C15.0374 8.84175 15.5312 7.64944 15.5312 6.40625C15.5312 5.16305 15.0374 3.97076 14.1583 3.09169C13.2793 2.21261 12.0869 1.71875 10.8438 1.71875C9.60056 1.71875 8.40825 2.21261 7.52919 3.09169C6.65011 3.97076 6.15625 5.16305 6.15625 6.40625Z" stroke="currentColor" stroke-width="1.11551" stroke-linecap="round" stroke-linejoin="round" />
      <path d="M4.98438 10.0575C4.98439 10.225 5.03459 10.3887 5.1285 10.5274C5.22241 10.6661 5.35573 10.7734 5.51125 10.8356L6.80125 11.3519C6.98191 11.4246 7.13164 11.5579 7.22477 11.7289C7.31788 11.8999 7.34862 12.098 7.31169 12.2892C7.27475 12.4804 7.17239 12.6527 7.02224 12.7767C6.87209 12.9007 6.68348 12.9686 6.48875 12.9687H5.21875" stroke="currentColor" stroke-width="1.11551" stroke-linecap="round" stroke-linejoin="round" />
      <path d="M6.15625 13.9062V12.9688" stroke="currentColor" stroke-width="1.11551" stroke-linecap="round" stroke-linejoin="round" />
      <path d="M4.30068 6.79184C3.59737 7.09426 2.97884 7.56431 2.49914 8.161C2.01944 8.75763 1.69317 9.46269 1.54887 10.2146C1.40456 10.9664 1.44661 11.7421 1.67132 12.474C1.89604 13.2059 2.29658 13.8715 2.83795 14.4129C3.37932 14.9542 4.04504 15.3546 4.77691 15.5793C5.50879 15.8039 6.28454 15.8459 7.03637 15.7015C7.78819 15.5571 8.49325 15.2308 9.08987 14.751C9.68644 14.2713 10.1564 13.6527 10.4588 12.9493" stroke="currentColor" stroke-width="1.11551" stroke-linecap="round" stroke-linejoin="round" />
      <path d="M11.7807 4.53125H10.51C10.3153 4.53139 10.1267 4.59927 9.97654 4.72327C9.82642 4.84727 9.7241 5.01964 9.6871 5.21084C9.65016 5.40203 9.68091 5.60012 9.77404 5.77114C9.86716 5.94216 10.0169 6.07544 10.1975 6.14812L11.4875 6.66438C11.6682 6.73706 11.8179 6.87034 11.911 7.04136C12.0042 7.21238 12.0349 7.41047 11.998 7.60169C11.961 7.79287 11.8587 7.96525 11.7085 8.08925C11.5584 8.21325 11.3698 8.28113 11.175 8.28125H9.90566" stroke="currentColor" stroke-width="1.11551" stroke-linecap="round" stroke-linejoin="round" />
      <path d="M10.8438 4.53125V3.59375" stroke="currentColor" stroke-width="1.11551" stroke-linecap="round" stroke-linejoin="round" />
      <path d="M10.8438 9.21875V8.28125" stroke="currentColor" stroke-width="1.11551" stroke-linecap="round" stroke-linejoin="round" />
    </g>
    <defs>
      <clipPath id="clip0_29_528">
        <rect width="17" height="15.5" fill="transparent" transform="translate(0 0.75)" />
      </clipPath>
    </defs>
  </symbol>
  <symbol id="hanger" width="18" height="14" viewBox="0 0 18 14" fill="none" xmlns="http://www.w3.org/2000/svg">
    <path d="M10.7813 2.23333C10.7813 1.77362 10.594 1.33274 10.2606 1.00768C9.92724 0.682618 9.47505 0.5 9.00356 0.5C8.53206 0.5 8.07987 0.682618 7.74648 1.00768C7.41308 1.33274 7.22578 1.77362 7.22578 2.23333C7.22844 3.67807 7.82133 4.83333 9.00711 5.7H9L16.0853 9.5376C16.3626 9.68774 16.5937 9.90746 16.7545 10.174C16.9153 10.4405 17.0001 10.7442 17 11.0534V11.7667C17 12.2264 16.8127 12.6673 16.4793 12.9923C16.1459 13.3174 15.6937 13.5 15.2222 13.5H2.77778C2.30628 13.5 1.8541 13.3174 1.5207 12.9923C1.1873 12.6673 1 12.2264 1 11.7667V11.0534C0.999917 10.7442 1.08469 10.4405 1.24552 10.174C1.40635 9.90746 1.63739 9.68774 1.91467 9.5376L9 5.7" stroke="currentColor" stroke-linecap="round" stroke-linejoin="round" />
  </symbol>
  <symbol id="ruler" width="18" height="20" viewBox="0 0 18 20" fill="none" xmlns="http://www.w3.org/2000/svg">
    <path d="M13.4444 1L17 5L4.55556 19L1 15L13.4444 1Z" stroke="currentColor" stroke-linecap="round" stroke-linejoin="round" />
    <path d="M12.556 5L11.2227 3.5" stroke="currentColor" stroke-linecap="round" stroke-linejoin="round" />
    <path d="M9.88802 8L8.55469 6.5" stroke="currentColor" stroke-linecap="round" stroke-linejoin="round" />
    <path d="M7.22201 11L5.88867 9.5" stroke="currentColor" stroke-linecap="round" stroke-linejoin="round" />
    <path d="M4.55599 14L3.22266 12.5" stroke="currentColor" stroke-linecap="round" stroke-linejoin="round" />
  </symbol>
  <symbol id="hearth-unfill" width="20" height="20" viewBox="0 0 20 20" fill="none" xmlns="http://www.w3.org/2000/svg">
    <path d="M17.3671 3.84172C16.9415 3.41589 16.4361 3.0781 15.8799 2.84763C15.3237 2.61716 14.7275 2.49854 14.1254 2.49854C13.5234 2.49854 12.9272 2.61716 12.371 2.84763C11.8147 3.0781 11.3094 3.41589 10.8838 3.84172L10.0004 4.72506L9.11709 3.84172C8.25735 2.98198 7.09129 2.49898 5.87542 2.49898C4.65956 2.49898 3.4935 2.98198 2.63376 3.84172C1.77401 4.70147 1.29102 5.86753 1.29102 7.08339C1.29102 8.29925 1.77401 9.46531 2.63376 10.3251L3.51709 11.2084L10.0004 17.6917L16.4838 11.2084L17.3671 10.3251C17.7929 9.89943 18.1307 9.39407 18.3612 8.83785C18.5917 8.28164 18.7103 7.68546 18.7103 7.08339C18.7103 6.48132 18.5917 5.88514 18.3612 5.32893C18.1307 4.77271 17.7929 4.26735 17.3671 3.84172Z" stroke="currentColor" stroke-width="2" stroke-linecap="round" stroke-linejoin="round" />
  </symbol>
  <symbol id="hearth-fill" width="20" height="20" viewBox="0 0 20 20" fill="none" xmlns="http://www.w3.org/2000/svg">
    <path d="M17.3671 3.84172C16.9415 3.41589 16.4361 3.0781 15.8799 2.84763C15.3237 2.61716 14.7275 2.49854 14.1254 2.49854C13.5234 2.49854 12.9272 2.61716 12.371 2.84763C11.8147 3.0781 11.3094 3.41589 10.8838 3.84172L10.0004 4.72506L9.11709 3.84172C8.25735 2.98198 7.09129 2.49898 5.87542 2.49898C4.65956 2.49898 3.4935 2.98198 2.63376 3.84172C1.77401 4.70147 1.29102 5.86753 1.29102 7.08339C1.29102 8.29925 1.77401 9.46531 2.63376 10.3251L3.51709 11.2084L10.0004 17.6917L16.4838 11.2084L17.3671 10.3251C17.7929 9.89943 18.1307 9.39407 18.3612 8.83785C18.5917 8.28164 18.7103 7.68546 18.7103 7.08339C18.7103 6.48132 18.5917 5.88514 18.3612 5.32893C18.1307 4.77271 17.7929 4.26735 17.3671 3.84172Z" fill="currentColor" stroke="currentColor" stroke-width="2" stroke-linecap="round" stroke-linejoin="round" />
  </symbol>
  <symbol id="filter" width="16" height="16" viewBox="0 0 16 16" fill="none" xmlns="http://www.w3.org/2000/svg">
    <path d="M13.9987 13.333H9.33203" stroke="currentColor" stroke-width="1.2" stroke-linecap="round" stroke-linejoin="round" />
    <path d="M6.6569 13.333H1.99023" stroke="currentColor" stroke-width="1.2" stroke-linecap="round" stroke-linejoin="round" />
    <path d="M13.9902 8H7.99023" stroke="currentColor" stroke-width="1.2" stroke-linecap="round" stroke-linejoin="round" />
    <path d="M5.32357 8H1.99023" stroke="currentColor" stroke-width="1.2" stroke-linecap="round" stroke-linejoin="round" />
    <path d="M13.9896 2.66699H10.6562" stroke="currentColor" stroke-width="1.2" stroke-linecap="round" stroke-linejoin="round" />
    <path d="M7.99023 2.66699L1.99023 2.66699" stroke="currentColor" stroke-width="1.2" stroke-linecap="round" stroke-linejoin="round" />
    <path d="M9.33203 15.333V11.333" stroke="currentColor" stroke-width="1.2" stroke-linecap="round" stroke-linejoin="round" />
    <path d="M5.32422 10V6" stroke="currentColor" stroke-width="1.2" stroke-linecap="round" stroke-linejoin="round" />
    <path d="M10.6562 4.66699V0.666992" stroke="currentColor" stroke-width="1.2" stroke-linecap="round" stroke-linejoin="round" />
  </symbol>
  <symbol id="stars-cat-1-desktop" width="21" height="47" viewBox="0 0 21 47" fill="none" xmlns="http://www.w3.org/2000/svg">
    <path d="M-20.6435 21.3572C-21.1249 21.3066 -21.5786 21.2374 -22 21.1532C-21.5602 21.1532 -21.1072 21.2234 -20.6435 21.3572C-13.5678 22.1002 -0.49361 18.8153 4.46154 0C5.5641 7.93245 10.4154 24.0618 21 25.1194C13.7231 29.306 -0.830769 39.53 -0.830769 46.9337C-4.75267 38.8895 -13.8529 23.3155 -20.6435 21.3572Z" fill="currentColor" />
  </symbol>
  <symbol id="stars-cat-2-desktop" width="71" height="82" viewBox="0 0 71 82" fill="none" xmlns="http://www.w3.org/2000/svg">
    <path d="M32.5554 48.0444C31.6485 47.9496 30.7939 47.8199 30 47.662C30.8285 47.662 31.6818 47.7937 32.5554 48.0444C45.8838 49.4375 70.512 43.2785 79.8462 8C81.9231 22.8732 91.0615 53.1155 111 55.0986C97.2923 62.9484 69.8769 82.1183 69.8769 96C62.4892 80.9174 45.3469 51.7163 32.5554 48.0444Z" fill="currentColor" />
    <path d="M1.48274 23.6626C0.956518 23.6066 0.460651 23.5299 0 23.4366C0.480734 23.4366 0.975851 23.5144 1.48274 23.6626C9.21655 24.4858 23.507 20.8464 28.9231 0C30.1282 8.78873 35.4308 26.6592 47 27.831C39.0462 32.4695 23.1385 43.7972 23.1385 52C18.8517 43.0875 8.90499 25.8324 1.48274 23.6626Z" fill="currentColor" />
  </symbol>
  <symbol id="stars-cat-1-mobile" width="35" height="53" viewBox="0 0 35 53" fill="none" xmlns="http://www.w3.org/2000/svg">
    <path d="M1.86131 17.0333C1.20074 16.9622 0.578264 16.8649 0 16.7465C0.603475 16.7465 1.225 16.8453 1.86131 17.0333C11.5697 18.0781 29.5088 13.4588 36.3077 -13C37.8205 -1.84507 44.4769 20.8366 59 22.3239C49.0154 28.2113 29.0462 42.5887 29.0462 53C23.6649 41.688 11.1786 19.7872 1.86131 17.0333Z" fill="currentColor" />
  </symbol>
  <symbol id="stars-cat-2-mobile" width="66" height="94" viewBox="0 0 66 94" fill="none" xmlns="http://www.w3.org/2000/svg">
    <path d="M14.1137 54.2187C13.3635 54.14 12.6567 54.0324 12 53.9014C12.6853 53.9014 13.3911 54.0107 14.1137 54.2187C25.1385 55.3743 45.51 50.2651 53.2308 21C54.9487 33.338 62.5077 58.4254 79 60.0704C67.6615 66.5822 44.9846 82.4845 44.9846 94C38.8737 81.4883 24.6943 57.2647 14.1137 54.2187Z" fill="currentColor" />
    <path d="M1.16726 19.1121C0.753003 19.0669 0.36264 19.0049 0 18.9296C0.37845 18.9296 0.768222 18.9924 1.16726 19.1121C7.25558 19.777 18.5055 16.8374 22.7692 0C23.7179 7.09859 27.8923 21.5324 37 22.4789C30.7385 26.2254 18.2154 35.3746 18.2154 42C14.8407 34.8015 7.01031 20.8646 1.16726 19.1121Z" fill="currentColor" />
  </symbol>
  <symbol id="eye" width="21" height="20" viewBox="0 0 21 20" fill="none" xmlns="http://www.w3.org/2000/svg">
    <path d="M1.33594 10.2143C1.33594 10.2143 4.66927 3.54761 10.5026 3.54761C16.3359 3.54761 19.6693 10.2143 19.6693 10.2143C19.6693 10.2143 16.3359 16.8809 10.5026 16.8809C4.66927 16.8809 1.33594 10.2143 1.33594 10.2143Z" stroke="currentColor" stroke-width="2" stroke-linecap="round" stroke-linejoin="round" />
    <path d="M10.5 12.7144C11.8807 12.7144 13 11.5951 13 10.2144C13 8.83364 11.8807 7.71436 10.5 7.71436C9.11929 7.71436 8 8.83364 8 10.2144C8 11.5951 9.11929 12.7144 10.5 12.7144Z" stroke="currentColor" stroke-width="2" stroke-linecap="round" stroke-linejoin="round" />
  </symbol>
  <symbol id="refresh" viewBox="0 0 20 20" fill="none" xmlns="http://www.w3.org/2000/svg">
    <g clip-path="url(#clip0_1452_12453)">
      <path d="M0.832031 3.33337V8.33337H5.83203" stroke="currentColor" stroke-width="2" stroke-linecap="round" stroke-linejoin="round" />
      <path d="M2.9237 12.5C3.46403 14.0337 4.48814 15.3502 5.84174 16.2512C7.19535 17.1522 8.8051 17.5889 10.4285 17.4954C12.0518 17.402 13.6008 16.7835 14.8421 15.7332C16.0834 14.6828 16.9497 13.2575 17.3105 11.672C17.6714 10.0865 17.5071 8.42667 16.8426 6.94262C16.178 5.45857 15.0491 4.2307 13.6261 3.44401C12.203 2.65732 10.5628 2.35442 8.9526 2.58097C7.34241 2.80751 5.84946 3.55122 4.6987 4.70004L0.832031 8.33337" stroke="currentColor" stroke-width="2" stroke-linecap="round" stroke-linejoin="round" />
    </g>
    <defs>
      <clipPath id="clip0_1452_12453">
        <rect width="20" height="20" fill="white" />
      </clipPath>
    </defs>
  </symbol>
  <symbol id="equals" viewBox="0 0 21 21" fill="none" xmlns="http://www.w3.org/2000/svg">
    <path d="M4.25 9.01196H15.9167" stroke="currentColor" stroke-width="2" stroke-linecap="round" stroke-linejoin="round" />
    <path d="M4.25 12.3452H15.9167" stroke="currentColor" stroke-width="2" stroke-linecap="round" stroke-linejoin="round" />
  </symbol>
  <symbol id="rotative_star" viewBox="0 0 48 48" fill="none" xmlns="http://www.w3.org/2000/svg">
    <path d="M37.0463 24.1987L27.3751 20.625L23.8126 10.9462C23.6016 10.3731 23.2199 9.87849 22.719 9.5291C22.2181 9.17971 21.622 8.99238 21.0113 8.99238C20.4006 8.99238 19.8045 9.17971 19.3036 9.5291C18.8027 9.87849 18.421 10.3731 18.2101 10.9462L14.6251 20.625L4.9463 24.1875C4.37317 24.3985 3.87854 24.7802 3.52915 25.2811C3.17976 25.782 2.99243 26.378 2.99243 26.9888C2.99243 27.5995 3.17976 28.1955 3.52915 28.6964C3.87854 29.1973 4.37317 29.579 4.9463 29.79L14.6251 33.375L18.1876 43.0537C18.3985 43.6269 18.7802 44.1215 19.2811 44.4709C19.782 44.8203 20.3781 45.0076 20.9888 45.0076C21.5995 45.0076 22.1956 44.8203 22.6965 44.4709C23.1974 44.1215 23.5791 43.6269 23.7901 43.0537L27.3751 33.375L37.0538 29.8125C37.6269 29.6015 38.1216 29.2198 38.471 28.7189C38.8203 28.218 39.0077 27.622 39.0077 27.0112C39.0077 26.4005 38.8203 25.8045 38.471 25.3036C38.1216 24.8027 37.6269 24.421 37.0538 24.21L37.0463 24.1987ZM25.6876 30.7913C25.4839 30.8663 25.299 30.9846 25.1456 31.1381C24.9922 31.2915 24.8738 31.4764 24.7988 31.68L21.0001 41.9719L17.2088 31.6875C17.1339 31.4817 17.0148 31.2949 16.86 31.1401C16.7052 30.9852 16.5183 30.8662 16.3126 30.7913L6.02818 27L16.3126 23.2087C16.5183 23.1338 16.7052 23.0148 16.86 22.8599C17.0148 22.7051 17.1339 22.5183 17.2088 22.3125L21.0001 12.0281L24.7913 22.3125C24.8663 22.5161 24.9847 22.701 25.1381 22.8545C25.2915 23.0079 25.4764 23.1262 25.6801 23.2013L35.9719 27L25.6876 30.7913ZM27.0001 7.5C27.0001 7.10218 27.1581 6.72064 27.4394 6.43934C27.7207 6.15804 28.1022 6 28.5001 6H31.5001V3C31.5001 2.60218 31.6581 2.22064 31.9394 1.93934C32.2207 1.65804 32.6022 1.5 33.0001 1.5C33.3979 1.5 33.7794 1.65804 34.0607 1.93934C34.342 2.22064 34.5001 2.60218 34.5001 3V6H37.5001C37.8979 6 38.2794 6.15804 38.5607 6.43934C38.842 6.72064 39.0001 7.10218 39.0001 7.5C39.0001 7.89782 38.842 8.27936 38.5607 8.56066C38.2794 8.84196 37.8979 9 37.5001 9H34.5001V12C34.5001 12.3978 34.342 12.7794 34.0607 13.0607C33.7794 13.342 33.3979 13.5 33.0001 13.5C32.6022 13.5 32.2207 13.342 31.9394 13.0607C31.6581 12.7794 31.5001 12.3978 31.5001 12V9H28.5001C28.1022 9 27.7207 8.84196 27.4394 8.56066C27.1581 8.27936 27.0001 7.89782 27.0001 7.5ZM46.5001 16.5C46.5001 16.8978 46.342 17.2794 46.0607 17.5607C45.7794 17.842 45.3979 18 45.0001 18H43.5001V19.5C43.5001 19.8978 43.342 20.2794 43.0607 20.5607C42.7794 20.842 42.3979 21 42.0001 21C41.6022 21 41.2207 20.842 40.9394 20.5607C40.6581 20.2794 40.5001 19.8978 40.5001 19.5V18H39.0001C38.6022 18 38.2207 17.842 37.9394 17.5607C37.6581 17.2794 37.5001 16.8978 37.5001 16.5C37.5001 16.1022 37.6581 15.7206 37.9394 15.4393C38.2207 15.158 38.6022 15 39.0001 15H40.5001V13.5C40.5001 13.1022 40.6581 12.7206 40.9394 12.4393C41.2207 12.158 41.6022 12 42.0001 12C42.3979 12 42.7794 12.158 43.0607 12.4393C43.342 12.7206 43.5001 13.1022 43.5001 13.5V15H45.0001C45.3979 15 45.7794 15.158 46.0607 15.4393C46.342 15.7206 46.5001 16.1022 46.5001 16.5Z" fill="currentColor" />
  </symbol>
  <symbol id="rotative_sum" viewBox="0 0 48 48" fill="none" xmlns="http://www.w3.org/2000/svg">
    <path d="M22.5 7.5V6C22.5 5.60218 22.658 5.22064 22.9393 4.93934C23.2206 4.65804 23.6022 4.5 24 4.5C24.3978 4.5 24.7794 4.65804 25.0607 4.93934C25.342 5.22064 25.5 5.60218 25.5 6V7.5C25.5 7.89782 25.342 8.27936 25.0607 8.56066C24.7794 8.84196 24.3978 9 24 9C23.6022 9 23.2206 8.84196 22.9393 8.56066C22.658 8.27936 22.5 7.89782 22.5 7.5ZM36 24C36 26.3734 35.2962 28.6935 33.9776 30.6668C32.6591 32.6402 30.7849 34.1783 28.5922 35.0866C26.3995 35.9948 23.9867 36.2324 21.6589 35.7694C19.3311 35.3064 17.1929 34.1635 15.5147 32.4853C13.8365 30.8071 12.6936 28.6689 12.2306 26.3411C11.7676 24.0133 12.0052 21.6005 12.9134 19.4078C13.8217 17.2151 15.3598 15.3409 17.3332 14.0224C19.3065 12.7038 21.6266 12 24 12C27.1815 12.0035 30.2318 13.2689 32.4814 15.5186C34.7311 17.7682 35.9965 20.8185 36 24ZM33 24C33 22.22 32.4722 20.4799 31.4832 18.9999C30.4943 17.5198 29.0887 16.3663 27.4442 15.6851C25.7996 15.0039 23.99 14.8257 22.2442 15.1729C20.4984 15.5202 18.8947 16.3774 17.636 17.636C16.3774 18.8947 15.5202 20.4984 15.1729 22.2442C14.8257 23.99 15.0039 25.7996 15.6851 27.4442C16.3663 29.0887 17.5198 30.4943 18.9999 31.4832C20.4799 32.4722 22.22 33 24 33C26.3862 32.9975 28.6739 32.0485 30.3612 30.3612C32.0485 28.6739 32.9975 26.3862 33 24ZM10.9388 13.0613C11.2202 13.3427 11.602 13.5008 12 13.5008C12.398 13.5008 12.7798 13.3427 13.0613 13.0613C13.3427 12.7798 13.5008 12.398 13.5008 12C13.5008 11.602 13.3427 11.2202 13.0613 10.9388L11.5612 9.43875C11.2798 9.15729 10.898 8.99917 10.5 8.99917C10.102 8.99917 9.72021 9.15729 9.43875 9.43875C9.15729 9.72021 8.99917 10.102 8.99917 10.5C8.99917 10.898 9.15729 11.2798 9.43875 11.5612L10.9388 13.0613ZM10.9388 34.9387L9.43875 36.4387C9.15729 36.7202 8.99917 37.102 8.99917 37.5C8.99917 37.898 9.15729 38.2798 9.43875 38.5612C9.72021 38.8427 10.102 39.0008 10.5 39.0008C10.898 39.0008 11.2798 38.8427 11.5612 38.5612L13.0613 37.0612C13.2006 36.9219 13.3112 36.7564 13.3866 36.5743C13.462 36.3923 13.5008 36.1971 13.5008 36C13.5008 35.8029 13.462 35.6077 13.3866 35.4257C13.3112 35.2436 13.2006 35.0781 13.0613 34.9387C12.9219 34.7994 12.7564 34.6888 12.5743 34.6134C12.3923 34.538 12.1971 34.4992 12 34.4992C11.8029 34.4992 11.6077 34.538 11.4257 34.6134C11.2436 34.6888 11.0781 34.7994 10.9388 34.9387ZM36 13.5C36.197 13.5002 36.3922 13.4615 36.5743 13.3862C36.7564 13.3109 36.9218 13.2005 37.0612 13.0613L38.5612 11.5612C38.8427 11.2798 39.0008 10.898 39.0008 10.5C39.0008 10.102 38.8427 9.72021 38.5612 9.43875C38.2798 9.15729 37.898 8.99917 37.5 8.99917C37.102 8.99917 36.7202 9.15729 36.4387 9.43875L34.9387 10.9388C34.7287 11.1485 34.5857 11.4159 34.5277 11.707C34.4697 11.9982 34.4994 12.3 34.6131 12.5742C34.7267 12.8484 34.9191 13.0828 35.166 13.2476C35.4129 13.4124 35.7032 13.5002 36 13.5ZM37.0612 34.9387C36.7798 34.6573 36.398 34.4992 36 34.4992C35.602 34.4992 35.2202 34.6573 34.9387 34.9387C34.6573 35.2202 34.4992 35.602 34.4992 36C34.4992 36.398 34.6573 36.7798 34.9387 37.0612L36.4387 38.5612C36.5781 38.7006 36.7436 38.8112 36.9257 38.8866C37.1077 38.962 37.3029 39.0008 37.5 39.0008C37.6971 39.0008 37.8923 38.962 38.0743 38.8866C38.2564 38.8112 38.4219 38.7006 38.5612 38.5612C38.7006 38.4219 38.8112 38.2564 38.8866 38.0743C38.962 37.8923 39.0008 37.6971 39.0008 37.5C39.0008 37.3029 38.962 37.1077 38.8866 36.9257C38.8112 36.7436 38.7006 36.5781 38.5612 36.4387L37.0612 34.9387ZM7.5 22.5H6C5.60218 22.5 5.22064 22.658 4.93934 22.9393C4.65804 23.2206 4.5 23.6022 4.5 24C4.5 24.3978 4.65804 24.7794 4.93934 25.0607C5.22064 25.342 5.60218 25.5 6 25.5H7.5C7.89782 25.5 8.27936 25.342 8.56066 25.0607C8.84196 24.7794 9 24.3978 9 24C9 23.6022 8.84196 23.2206 8.56066 22.9393C8.27936 22.658 7.89782 22.5 7.5 22.5ZM24 39C23.6022 39 23.2206 39.158 22.9393 39.4393C22.658 39.7206 22.5 40.1022 22.5 40.5V42C22.5 42.3978 22.658 42.7794 22.9393 43.0607C23.2206 43.342 23.6022 43.5 24 43.5C24.3978 43.5 24.7794 43.342 25.0607 43.0607C25.342 42.7794 25.5 42.3978 25.5 42V40.5C25.5 40.1022 25.342 39.7206 25.0607 39.4393C24.7794 39.158 24.3978 39 24 39ZM42 22.5H40.5C40.1022 22.5 39.7206 22.658 39.4393 22.9393C39.158 23.2206 39 23.6022 39 24C39 24.3978 39.158 24.7794 39.4393 25.0607C39.7206 25.342 40.1022 25.5 40.5 25.5H42C42.3978 25.5 42.7794 25.342 43.0607 25.0607C43.342 24.7794 43.5 24.3978 43.5 24C43.5 23.6022 43.342 23.2206 43.0607 22.9393C42.7794 22.658 42.3978 22.5 42 22.5Z" fill="currentColor" />
  </symbol>
  <symbol id="rotative_moon" viewBox="0 0 48 48" fill="none" xmlns="http://www.w3.org/2000/svg">
    <path d="M44.9999 18C44.9999 18.3978 44.8419 18.7794 44.5606 19.0607C44.2793 19.342 43.8977 19.5 43.4999 19.5H40.4999V22.5C40.4999 22.8978 40.3419 23.2794 40.0606 23.5607C39.7793 23.842 39.3977 24 38.9999 24C38.6021 24 38.2205 23.842 37.9392 23.5607C37.6579 23.2794 37.4999 22.8978 37.4999 22.5V19.5H34.4999C34.1021 19.5 33.7205 19.342 33.4392 19.0607C33.1579 18.7794 32.9999 18.3978 32.9999 18C32.9999 17.6022 33.1579 17.2206 33.4392 16.9393C33.7205 16.658 34.1021 16.5 34.4999 16.5H37.4999V13.5C37.4999 13.1022 37.6579 12.7206 37.9392 12.4393C38.2205 12.158 38.6021 12 38.9999 12C39.3977 12 39.7793 12.158 40.0606 12.4393C40.3419 12.7206 40.4999 13.1022 40.4999 13.5V16.5H43.4999C43.8977 16.5 44.2793 16.658 44.5606 16.9393C44.8419 17.2206 44.9999 17.6022 44.9999 18ZM26.9999 10.5H28.4999V12C28.4999 12.3978 28.6579 12.7794 28.9392 13.0607C29.2205 13.342 29.6021 13.5 29.9999 13.5C30.3977 13.5 30.7793 13.342 31.0606 13.0607C31.3419 12.7794 31.4999 12.3978 31.4999 12V10.5H32.9999C33.3977 10.5 33.7793 10.342 34.0606 10.0607C34.3419 9.77936 34.4999 9.39782 34.4999 9C34.4999 8.60218 34.3419 8.22064 34.0606 7.93934C33.7793 7.65804 33.3977 7.5 32.9999 7.5H31.4999V6C31.4999 5.60218 31.3419 5.22064 31.0606 4.93934C30.7793 4.65804 30.3977 4.5 29.9999 4.5C29.6021 4.5 29.2205 4.65804 28.9392 4.93934C28.6579 5.22064 28.4999 5.60218 28.4999 6V7.5H26.9999C26.6021 7.5 26.2205 7.65804 25.9392 7.93934C25.6579 8.22064 25.4999 8.60218 25.4999 9C25.4999 9.39782 25.6579 9.77936 25.9392 10.0607C26.2205 10.342 26.6021 10.5 26.9999 10.5ZM40.6443 28.6875C40.8189 28.8908 40.9358 29.1371 40.983 29.4009C41.0301 29.6647 41.0058 29.9363 40.9124 30.1875C39.8716 33.0261 38.1325 35.5567 35.8557 37.5459C33.5789 39.5351 30.8377 40.9188 27.8851 41.5692C24.9325 42.2197 21.8637 42.1159 18.9618 41.2675C16.0599 40.4191 13.4184 38.8535 11.2812 36.715C9.14392 34.5766 7.57975 31.9342 6.73302 29.0318C5.88629 26.1294 5.78427 23.0605 6.43638 20.1083C7.08849 17.1561 8.47371 14.4157 10.4642 12.14C12.4547 9.86436 14.9864 8.12673 17.8255 7.0875C18.0754 6.99598 18.3452 6.97259 18.6071 7.01973C18.869 7.06687 19.1137 7.18285 19.316 7.35576C19.5183 7.52867 19.6709 7.75229 19.7583 8.00367C19.8456 8.25506 19.8645 8.52515 19.813 8.78625C19.2874 11.4468 19.4251 14.1959 20.214 16.7906C21.0029 19.3853 22.4188 21.7458 24.3365 23.6634C26.2541 25.5811 28.6146 26.997 31.2093 27.7859C33.804 28.5748 36.5531 28.7125 39.2136 28.1869C39.4751 28.1358 39.7454 28.1552 39.9968 28.2432C40.2483 28.3312 40.4717 28.4845 40.6443 28.6875ZM37.0086 31.4775C36.673 31.4944 36.3355 31.5037 35.9999 31.5037C30.8292 31.4983 25.8719 29.4416 22.216 25.785C18.5601 22.1284 16.5044 17.1707 16.4999 12C16.4999 11.6644 16.4999 11.3269 16.5261 10.9913C14.5304 12.1397 12.8258 13.7322 11.5445 15.6454C10.2631 17.5586 9.43946 19.7411 9.13728 22.0238C8.83509 24.3065 9.06249 26.6282 9.80187 28.8089C10.5412 30.9896 11.7727 32.9708 13.4009 34.599C15.0291 36.2272 17.0103 37.4587 19.191 38.198C21.3717 38.9374 23.6934 39.1648 25.9761 38.8626C28.2588 38.5604 30.4413 37.7368 32.3545 36.4554C34.2677 35.1741 35.8602 33.4695 37.0086 31.4738V31.4775Z" fill="currentColor" />
  </symbol>
  <symbol id="share_facebook" viewBox="0 0 25 25" fill="none" xmlns="http://www.w3.org/2000/svg">
    <path d="M25 12.5C25 5.5957 19.4043 0 12.5 0C5.5957 0 0 5.5957 0 12.5C0 19.4043 5.5957 25 12.5 25C12.5732 25 12.6465 25 12.7197 24.9951V15.2686H10.0342V12.1387H12.7197V9.83398C12.7197 7.16309 14.3506 5.70801 16.7334 5.70801C17.876 5.70801 18.8574 5.79102 19.1406 5.83008V8.62305H17.5C16.2061 8.62305 15.9521 9.23828 15.9521 10.1416V12.1338H19.0527L18.6475 15.2637H15.9521V24.5166C21.1768 23.0176 25 18.208 25 12.5Z" fill="currentColor" />
  </symbol>
  <symbol id="share_email" viewBox="0 0 25 25" fill="none" xmlns="http://www.w3.org/2000/svg">
    <g clip-path="url(#clip0_54_2112)">
      <path d="M10.9434 14.842L15.0094 12.5002L10.9434 10.1583V14.842Z" fill="#FD0303" />
      <path d="M12.5 0C5.5975 0 0 5.5975 0 12.5C0 19.4025 5.5975 25 12.5 25C19.4025 25 25 19.4025 25 12.5C25 5.5975 19.4025 0 12.5 0ZM20.3106 12.5128C20.3106 12.5128 20.3106 15.0478 19.989 16.2703C19.8088 16.9394 19.2812 17.4669 18.6121 17.647C17.3897 17.9688 12.5 17.9688 12.5 17.9688C12.5 17.9688 7.6231 17.9688 6.3879 17.6342C5.7188 17.4541 5.19123 16.9264 5.01099 16.2573C4.68922 15.0478 4.68922 12.5 4.68922 12.5C4.68922 12.5 4.68922 9.96513 5.01099 8.74271C5.19104 8.07362 5.73158 7.53307 6.3879 7.35302C7.61032 7.03125 12.5 7.03125 12.5 7.03125C12.5 7.03125 17.3897 7.03125 18.6121 7.3658C19.2812 7.54585 19.8088 8.07362 19.989 8.74271C20.3236 9.96513 20.3106 12.5128 20.3106 12.5128Z" fill="#FD0303" />
      <path d="M20.3106 12.5128C20.3106 12.5128 20.3106 15.0478 19.989 16.2703C19.8088 16.9394 19.2812 17.4669 18.6121 17.647C17.3897 17.9688 12.5 17.9688 12.5 17.9688C12.5 17.9688 7.6231 17.9688 6.3879 17.6342C5.7188 17.4541 5.19123 16.9264 5.01099 16.2573C4.68922 15.0478 4.68922 12.5 4.68922 12.5C4.68922 12.5 4.68922 9.96513 5.01099 8.74271C5.19104 8.07362 5.73158 7.53307 6.3879 7.35302C7.61032 7.03125 12.5 7.03125 12.5 7.03125C12.5 7.03125 17.3897 7.03125 18.6121 7.3658C19.2812 7.54585 19.8088 8.07362 19.989 8.74271C20.3236 9.96513 20.3106 12.5128 20.3106 12.5128Z" fill="#FD0303" />
      <path d="M7.5 7.5H17.5C18.1875 7.5 18.75 8.0625 18.75 8.75V16.25C18.75 16.9375 18.1875 17.5 17.5 17.5H7.5C6.8125 17.5 6.25 16.9375 6.25 16.25V8.75C6.25 8.0625 6.8125 7.5 7.5 7.5Z" stroke="#FCFCFC" stroke-linecap="round" stroke-linejoin="round" />
      <path d="M18.75 8.75L12.5 13.125L6.25 8.75" stroke="#FCFCFC" stroke-linecap="round" stroke-linejoin="round" />
    </g>
    <defs>
      <clipPath id="clip0_54_2112">
        <rect width="25" height="25" fill="transparent" />
      </clipPath>
    </defs>
  </symbol>
  <symbol id="share_whatsapp" viewBox="0 0 25 25" fill="none" xmlns="http://www.w3.org/2000/svg">
    <g clip-path="url(#clip0_54_2115)">
      <path d="M12.5 0C5.5975 0 0 5.5975 0 12.5C0 19.4025 5.5975 25 12.5 25C19.4025 25 25 19.4025 25 12.5C25 5.5975 19.4025 0 12.5 0ZM8.86765 18.8965H5.82333V9.73759H8.86765V18.8965ZM7.34558 8.48694H7.32574C6.30417 8.48694 5.64346 7.7837 5.64346 6.90479C5.64346 6.00605 6.32439 5.32227 7.3658 5.32227C8.40721 5.32227 9.04808 6.00605 9.06792 6.90479C9.06792 7.7837 8.40721 8.48694 7.34558 8.48694ZM19.8448 18.8965H16.8009V13.9967C16.8009 12.7653 16.3601 11.9255 15.2586 11.9255C14.4176 11.9255 13.9168 12.492 13.6967 13.0388C13.6162 13.2345 13.5965 13.508 13.5965 13.7817V18.8965H10.5524C10.5524 18.8965 10.5923 10.5968 10.5524 9.73759H13.5965V11.0344C14.0011 10.4103 14.7249 9.52263 16.3401 9.52263C18.343 9.52263 19.8448 10.8316 19.8448 13.6448V18.8965Z" fill="currentColor" />
      <rect x="5" y="4.16675" width="15.8333" height="15.8333" fill="currentColor" />
      <g clip-path="url(#clip1_54_2115)">
        <path d="M13 19.5C17.1421 19.5 20.5 16.1421 20.5 12C20.5 7.85786 17.1421 4.5 13 4.5C8.85786 4.5 5.5 7.85786 5.5 12C5.5 16.1421 8.85786 19.5 13 19.5Z" stroke="currentColor" stroke-width="1.6875" stroke-linecap="round" stroke-linejoin="round" />
        <path d="M12.998 5C9.18652 5.00119 6.00216 8.18965 6.00218 11.9979C6.00218 13.3709 6.41082 14.7272 7.17351 15.8738L6 18.9959L9.92962 18.2853C10.8895 18.7544 11.9436 18.9895 12.998 18.9902C16.8127 18.9928 20 15.8086 20 11.9979C20 8.19165 16.8115 4.99775 12.998 5Z" stroke="#FCFCFC" stroke-linecap="round" stroke-linejoin="round" />
        <path d="M13.3841 15.0798C14.3308 15.6875 15.3178 15.2449 16.0052 14.7322C16.48 14.3781 16.4642 13.6951 16.0587 13.2633L15.259 12.412C14.9557 12.7154 14.3646 12.8655 13.9539 12.7405C13.0711 12.4718 12.7006 12.0118 12.4003 11.5441C12.0554 11.0069 12.4449 10.2045 12.7482 9.90121L11.8569 9.08748C11.4811 8.74444 10.9103 8.68656 10.5825 9.07564C9.93377 9.84545 9.53033 11.0142 10.0081 11.7584C10.8658 13.0943 12.0481 14.2222 13.3841 15.0798Z" stroke="#FCFCFC" stroke-linecap="round" stroke-linejoin="round" />
      </g>
    </g>
    <defs>
      <clipPath id="clip0_54_2115">
        <rect width="25" height="25" fill="transparent" />
      </clipPath>
      <clipPath id="clip1_54_2115">
        <rect width="20" height="20" fill="transparent" transform="translate(3 2)" />
      </clipPath>
    </defs>
  </symbol>
  <symbol id="product_care_wash" viewBox="0 0 25 25" fill="none" xmlns="http://www.w3.org/2000/svg">
    <path d="M19.6275 22.3164H5.37157C5.19586 22.3164 5.05078 22.1742 5.05078 21.9957C5.05078 21.82 5.19302 21.6749 5.37157 21.6749H19.6275C19.8032 21.6749 19.9482 21.8172 19.9482 21.9957C19.9454 22.1714 19.8032 22.3164 19.6275 22.3164Z" fill="currentColor" />
    <path d="M5.37123 22.3164C5.2345 22.3164 5.1062 22.2272 5.06437 22.0905L1.40213 10.0353C1.35188 9.86519 1.44671 9.68672 1.61408 9.63647C1.7842 9.5863 1.96275 9.68112 2.01293 9.84849L5.67525 21.9009C5.72542 22.071 5.63059 22.2495 5.46322 22.2997C5.43258 22.3108 5.40187 22.3164 5.37123 22.3164Z" fill="currentColor" />
    <path d="M19.6273 22.3164C19.5966 22.3164 19.566 22.3109 19.5352 22.3025C19.3651 22.2523 19.2703 22.0738 19.3233 21.9037L22.9855 9.85129C23.0358 9.68116 23.2143 9.58633 23.3844 9.63934C23.5546 9.68951 23.6494 9.86806 23.5964 10.0382L19.9313 22.0877C19.8895 22.2272 19.764 22.3164 19.6273 22.3164Z" fill="currentColor" />
    <path d="M22.6805 12.2639C22.5884 12.2639 22.4964 12.2248 22.4322 12.1468L21.5982 11.1203C21.4309 10.9139 21.2189 10.8023 21.0014 10.8023C20.7838 10.8023 20.5718 10.9139 20.4073 11.1203C20.4044 11.1231 20.4017 11.1259 20.4017 11.1287C20.1116 11.4885 19.7211 11.6865 19.3055 11.6865C18.8899 11.6865 18.5022 11.4885 18.2093 11.1287C18.0531 10.9362 17.8607 10.8247 17.6626 10.8052C17.4869 10.7884 17.3558 10.635 17.3725 10.4592C17.3893 10.2835 17.5427 10.1525 17.7184 10.1692C18.0922 10.2026 18.4408 10.3979 18.703 10.7214L18.7086 10.727C18.8759 10.9335 19.0879 11.0478 19.3055 11.0478C19.523 11.0478 19.7351 10.9362 19.8996 10.7298C19.9024 10.727 19.9052 10.7243 19.9052 10.7214C20.1953 10.3617 20.583 10.1636 20.9985 10.1636C21.4142 10.1636 21.8019 10.3617 22.092 10.7187L22.9259 11.7451C23.0375 11.8818 23.0152 12.0826 22.8785 12.1942C22.8227 12.2388 22.753 12.2639 22.6805 12.2639Z" fill="currentColor" />
    <path d="M2.34288 12.2779C2.27318 12.2779 2.20064 12.2556 2.14204 12.2053C2.00539 12.0938 1.9831 11.893 2.09463 11.7563L2.94257 10.7075C3.23265 10.3477 3.62315 10.1497 4.03877 10.1497C4.45439 10.1497 4.84206 10.3477 5.13497 10.7075C5.30785 10.9195 5.51987 11.0339 5.73742 11.0339C5.95496 11.0339 6.16974 10.9195 6.3371 10.7131C6.62994 10.3505 7.02044 10.1525 7.43606 10.1497C7.85168 10.1497 8.23935 10.3477 8.52943 10.7048C8.53226 10.7104 8.53785 10.7131 8.54061 10.7187C8.60197 10.7912 8.66891 10.8554 8.73862 10.9028C8.88369 11.0032 8.92276 11.2012 8.82234 11.3463C8.72192 11.4914 8.52391 11.5303 8.37883 11.4299C8.25329 11.3463 8.13893 11.2403 8.03858 11.1148C8.03575 11.1092 8.03016 11.1064 8.0274 11.1009C7.86279 10.9 7.65084 10.7884 7.43606 10.7884C7.21852 10.7884 7.0065 10.9028 6.8392 11.1092C6.54354 11.4746 6.1558 11.6698 5.74017 11.6698C5.32463 11.6698 4.93689 11.4718 4.64405 11.112L4.63846 11.1064C4.47109 10.9 4.25914 10.7857 4.04153 10.7857C3.82399 10.7857 3.60921 10.9 3.44467 11.1064L2.59114 12.1579C2.52695 12.236 2.43495 12.2779 2.34288 12.2779Z" fill="currentColor" />
    <path d="M8.92564 13.1649C8.65234 13.1649 8.3929 13.0701 8.18095 12.8915C7.94664 12.6935 7.80439 12.4146 7.77927 12.1078C7.75415 11.8009 7.85181 11.5025 8.04982 11.2682L10.2645 8.66583C9.58393 8.69096 9.26597 8.30605 9.19067 8.20004C9.07348 8.0355 8.987 7.737 9.08742 7.4051C9.21855 6.9616 9.62016 6.60457 10.2812 6.34237C10.7052 6.17225 11.4053 5.92958 12.1445 5.67298C13.3048 5.26854 15.0593 4.65767 15.288 4.45966C15.6255 4.12769 16.3144 3.2491 16.3227 3.24075C16.4315 3.10127 16.6324 3.07898 16.7718 3.18775C16.9113 3.29652 16.9336 3.49736 16.8248 3.63684C16.7941 3.67307 16.1024 4.55449 15.7342 4.91711C15.4887 5.15977 14.5376 5.5168 12.3564 6.27267C11.6229 6.52651 10.9283 6.76918 10.5183 6.93095C10.0637 7.11219 9.77359 7.34374 9.70105 7.58358C9.66198 7.71195 9.70105 7.80678 9.71782 7.82907C9.83494 7.99644 10.2477 8.17775 11.0483 7.78725C11.185 7.7203 11.3495 7.75937 11.4416 7.87925C11.5336 7.9992 11.5308 8.16656 11.4332 8.28368L8.53798 11.6838C8.44866 11.787 8.40684 11.9209 8.41802 12.0576C8.42913 12.1943 8.49332 12.317 8.5965 12.4062C8.81128 12.5903 9.13483 12.5624 9.31897 12.3477L9.59787 12.0213C9.71223 11.8874 9.91307 11.8707 10.0497 11.9851C10.1836 12.0994 10.2003 12.3003 10.086 12.4369L9.80706 12.7632C9.60905 12.9975 9.33008 13.1398 9.0233 13.1649C8.98983 13.1649 8.95912 13.1649 8.92564 13.1649Z" fill="currentColor" />
    <path d="M9.7401 14.7771C9.47514 14.7771 9.21011 14.6879 8.9954 14.5038C8.76109 14.3057 8.61885 14.0268 8.59372 13.72C8.5686 13.4132 8.66626 13.1147 8.86427 12.8805L11.5949 9.67001C11.7093 9.53611 11.9101 9.51941 12.0468 9.63377C12.1807 9.74814 12.1974 9.94898 12.0831 10.0856L9.35243 13.296C9.26312 13.3993 9.22129 13.5332 9.23248 13.6698C9.24359 13.8065 9.30777 13.9292 9.41095 14.0185C9.62573 14.2026 9.94929 14.1747 10.1334 13.9599L12.8641 10.7494C12.9784 10.6155 13.1793 10.5988 13.3159 10.7132C13.4498 10.8276 13.4665 11.0284 13.3522 11.1651L10.6215 14.3755C10.39 14.6405 10.0665 14.7771 9.7401 14.7771Z" fill="currentColor" />
    <path d="M11.4593 15.321C11.186 15.321 10.9265 15.2262 10.7146 15.0476C10.232 14.6377 10.1735 13.9068 10.5834 13.4243L12.6336 11.0144C12.748 10.8805 12.9488 10.8637 13.0855 10.9781C13.2193 11.0925 13.236 11.2933 13.1217 11.43L11.0716 13.8399C10.8875 14.0547 10.9154 14.3782 11.1302 14.5623C11.2334 14.6516 11.3673 14.6934 11.5039 14.6822C11.6406 14.6711 11.7634 14.607 11.8526 14.5038L13.9027 12.0938C14.017 11.9599 14.2179 11.9432 14.3545 12.0576C14.4884 12.172 14.5052 12.3727 14.3908 12.5095L12.3407 14.9193C12.1427 15.1536 11.8638 15.2959 11.5569 15.321C11.5207 15.321 11.49 15.321 11.4593 15.321Z" fill="currentColor" />
    <path d="M13.412 15.5916C13.147 15.5916 12.8821 15.5023 12.6673 15.3183C12.433 15.1202 12.2907 14.8413 12.2656 14.5345C12.2405 14.2277 12.3381 13.9292 12.5361 13.6949L13.9001 12.0911C14.0145 11.9572 14.2153 11.9404 14.352 12.0548C14.4859 12.1692 14.5026 12.37 14.3882 12.5067L13.0243 14.1105C12.9351 14.2137 12.8932 14.3476 12.9044 14.4843C12.9155 14.6209 12.9796 14.7436 13.0828 14.8329C13.2976 15.017 13.6212 14.9891 13.8053 14.7744L16.5582 11.536C17.3867 10.5626 17.9863 9.3911 18.2932 8.14707C18.4076 7.68127 18.6335 7.2406 18.9459 6.87515L19.646 6.05233C19.7604 5.91844 19.9611 5.90174 20.0979 6.0161C20.2317 6.13046 20.2484 6.3313 20.1341 6.46795L19.434 7.29077C19.1857 7.58085 19.0072 7.93229 18.9152 8.30325C18.586 9.64211 17.9389 10.9028 17.0464 11.9516L14.2934 15.1899C14.0619 15.4549 13.7384 15.5916 13.412 15.5916Z" fill="currentColor" />
  </symbol>
  <symbol id="product_care_bleach" viewBox="0 0 23 22" fill="none" xmlns="http://www.w3.org/2000/svg">
    <mask id="mask0_1503_4708" style="mask-type: luminance" maskUnits="userSpaceOnUse" x="0" y="3" width="23" height="19">
      <path d="M0.947266 3.42883H22.0522V21.438H0.947266V3.42883Z" fill="white" />
    </mask>
    <g mask="url(#mask0_1503_4708)">
      <path d="M21.6606 21.4379C21.5724 21.4379 21.4808 21.4075 21.4096 21.3464L1.08378 4.12411C0.921001 3.98501 0.900633 3.74084 1.03973 3.57467C1.17875 3.41181 1.42292 3.39152 1.5891 3.53054L21.9115 20.7529C22.0743 20.892 22.0947 21.1361 21.9557 21.3023C21.8811 21.3905 21.7691 21.4379 21.6606 21.4379Z" fill="currentColor" />
      <path d="M1.33814 21.438C1.22619 21.438 1.11773 21.3905 1.03973 21.299C0.900633 21.1362 0.921001 20.8886 1.08378 20.7495L11.6893 11.7619L21.4096 3.5238C21.5724 3.38478 21.82 3.40515 21.9591 3.56793C22.0981 3.73071 22.0777 3.97827 21.9149 4.11737L12.1913 12.3588L1.5857 21.3464C1.5145 21.4075 1.42632 21.438 1.33814 21.438Z" fill="currentColor" />
    </g>
    <mask id="mask1_1503_4708" style="mask-type: luminance" maskUnits="userSpaceOnUse" x="0" y="0" width="23" height="20">
      <path d="M0.388672 0H22.6109V19.3403H0.388672V0Z" fill="white" />
    </mask>
    <g mask="url(#mask1_1503_4708)">
      <path d="M22.218 19.3386H0.783088C0.64407 19.3386 0.515155 19.264 0.447343 19.1453C0.379531 19.0266 0.379531 18.8774 0.447343 18.7553L11.1648 0.193332C11.2327 0.0746011 11.3615 0 11.5006 0C11.6396 0 11.7685 0.0746011 11.8363 0.193332L22.5537 18.7553C22.6216 18.874 22.6216 19.0232 22.5537 19.1453C22.4859 19.264 22.357 19.3386 22.218 19.3386ZM1.45466 18.5586H21.543L11.5006 1.16331L1.45466 18.5586Z" fill="currentColor" />
    </g>
  </symbol>
  <symbol id="product_care_spin" viewBox="0 0 24 24" fill="none" xmlns="http://www.w3.org/2000/svg">
    <g clip-path="url(#clip0_1503_4724)">
      <mask id="mask0_1503_4724" style="mask-type: luminance" maskUnits="userSpaceOnUse" x="0" y="0" width="24" height="24">
        <path d="M0.888672 0.888916H23.1111V23.103H0.888672V0.888916Z" fill="white" />
      </mask>
      <g mask="url(#mask0_1503_4724)">
        <path d="M23.1021 23.102H0.882812V0.88269H23.1021V23.102ZM1.55834 22.4265H22.4252V1.55814H1.55834V22.4265Z" fill="currentColor" />
        <path d="M11.9925 23.102C5.86706 23.102 0.882812 18.1177 0.882812 11.9924C0.882812 5.86694 5.86706 0.88269 11.9925 0.88269C18.1179 0.88269 23.1021 5.86694 23.1021 11.9924C23.1021 18.1177 18.1179 23.102 11.9925 23.102ZM11.9925 1.55814C6.23872 1.55814 1.55834 6.2386 1.55834 11.9924C1.55834 17.7461 6.23872 22.4249 11.9925 22.4249C17.7462 22.4249 22.4267 17.7446 22.4267 11.9924C22.4267 6.2401 17.7462 1.55814 11.9925 1.55814Z" fill="currentColor" />
      </g>
    </g>
    <defs>
      <clipPath id="clip0_1503_4724">
        <rect width="24" height="24" fill="white" />
      </clipPath>
    </defs>
  </symbol>
  <symbol id="product_care_iron" viewBox="0 0 25 25" fill="none" xmlns="http://www.w3.org/2000/svg">
    <path d="M13.7355 16.0956C13.7355 16.1152 13.735 16.1349 13.734 16.1545C13.7331 16.1741 13.7316 16.1938 13.7297 16.2133C13.7278 16.2329 13.7254 16.2524 13.7226 16.2718C13.7197 16.2913 13.7164 16.3106 13.7126 16.3299C13.7089 16.3492 13.7046 16.3684 13.6999 16.3875C13.6951 16.4065 13.69 16.4255 13.6843 16.4442C13.6787 16.4631 13.6726 16.4818 13.666 16.5003C13.6595 16.5188 13.6525 16.5371 13.6451 16.5553C13.6377 16.5734 13.6298 16.5914 13.6215 16.6092C13.6132 16.6269 13.6044 16.6445 13.5953 16.6618C13.5861 16.6791 13.5766 16.6962 13.5666 16.7131C13.5566 16.73 13.5462 16.7466 13.5354 16.763C13.5246 16.7793 13.5134 16.7954 13.5019 16.8112C13.4903 16.8269 13.4783 16.8424 13.466 16.8576C13.4537 16.8728 13.441 16.8877 13.4279 16.9023C13.4149 16.9169 13.4015 16.9311 13.3878 16.945C13.374 16.9589 13.36 16.9725 13.3456 16.9857C13.3312 16.9988 13.3165 17.0117 13.3015 17.0241C13.2865 17.0366 13.2712 17.0487 13.2555 17.0604C13.2399 17.0721 13.224 17.0835 13.2079 17.0944C13.1917 17.1053 13.1753 17.1158 13.1587 17.1259C13.142 17.136 13.1251 17.1457 13.108 17.155C13.0908 17.1643 13.0735 17.1731 13.0559 17.1815C13.0384 17.1899 13.0206 17.1979 13.0027 17.2054C12.9847 17.2129 12.9666 17.22 12.9483 17.2266C12.93 17.2332 12.9116 17.2394 12.893 17.2451C12.8744 17.2508 12.8557 17.2561 12.8368 17.2608C12.818 17.2656 12.799 17.2699 12.78 17.2738C12.7609 17.2776 12.7418 17.2809 12.7226 17.2838C12.7034 17.2867 12.6841 17.2891 12.6648 17.291C12.6454 17.293 12.6261 17.2944 12.6066 17.2954C12.5872 17.2963 12.5678 17.2968 12.5484 17.2968C12.529 17.2968 12.5096 17.2963 12.4902 17.2954C12.4707 17.2944 12.4514 17.293 12.432 17.291C12.4127 17.2891 12.3934 17.2867 12.3742 17.2838C12.355 17.2809 12.3358 17.2776 12.3168 17.2738C12.2978 17.2699 12.2788 17.2656 12.2599 17.2608C12.2411 17.2561 12.2224 17.2508 12.2038 17.2451C12.1852 17.2394 12.1668 17.2332 12.1485 17.2266C12.1302 17.22 12.1121 17.2129 12.0942 17.2054C12.0762 17.1979 12.0584 17.1899 12.0408 17.1815C12.0233 17.1731 12.0059 17.1643 11.9888 17.155C11.9717 17.1457 11.9548 17.136 11.9381 17.1259C11.9215 17.1158 11.9051 17.1053 11.8889 17.0944C11.8728 17.0835 11.8569 17.0721 11.8413 17.0604C11.8256 17.0487 11.8103 17.0366 11.7954 17.0241C11.7803 17.0117 11.7656 16.9988 11.7512 16.9857C11.7368 16.9725 11.7228 16.9589 11.709 16.945C11.6953 16.9311 11.6819 16.9169 11.6689 16.9023C11.6558 16.8877 11.6431 16.8728 11.6308 16.8576C11.6185 16.8424 11.6065 16.8269 11.5949 16.8112C11.5834 16.7954 11.5722 16.7793 11.5614 16.763C11.5506 16.7466 11.5402 16.73 11.5302 16.7131C11.5202 16.6962 11.5107 16.6791 11.5015 16.6618C11.4923 16.6445 11.4836 16.6269 11.4753 16.6092C11.467 16.5914 11.4592 16.5734 11.4517 16.5553C11.4443 16.5371 11.4373 16.5188 11.4307 16.5003C11.4242 16.4818 11.4181 16.4631 11.4125 16.4442C11.4068 16.4255 11.4016 16.4065 11.3969 16.3875C11.3922 16.3684 11.3879 16.3492 11.3841 16.3299C11.3804 16.3106 11.377 16.2913 11.3742 16.2718C11.3713 16.2524 11.369 16.2329 11.3671 16.2133C11.3651 16.1938 11.3637 16.1741 11.3628 16.1545C11.3618 16.1349 11.3613 16.1152 11.3613 16.0956C11.3613 16.0759 11.3618 16.0563 11.3628 16.0366C11.3637 16.017 11.3651 15.9974 11.3671 15.9778C11.369 15.9583 11.3713 15.9387 11.3742 15.9193C11.377 15.8999 11.3804 15.8805 11.3841 15.8612C11.3879 15.8419 11.3922 15.8228 11.3969 15.8037C11.4016 15.7846 11.4068 15.7657 11.4125 15.7469C11.4181 15.728 11.4242 15.7094 11.4307 15.6908C11.4373 15.6723 11.4443 15.654 11.4517 15.6359C11.4592 15.6177 11.467 15.5997 11.4753 15.5819C11.4836 15.5642 11.4923 15.5466 11.5015 15.5293C11.5107 15.5119 11.5202 15.4948 11.5302 15.478C11.5402 15.4611 11.5506 15.4445 11.5614 15.4281C11.5722 15.4118 11.5834 15.3957 11.5949 15.3799C11.6065 15.3641 11.6185 15.3487 11.6308 15.3335C11.6431 15.3183 11.6558 15.3034 11.6689 15.2888C11.6819 15.2742 11.6953 15.26 11.709 15.2461C11.7228 15.2322 11.7368 15.2187 11.7512 15.2055C11.7656 15.1923 11.7803 15.1795 11.7954 15.167C11.8103 15.1545 11.8256 15.1424 11.8413 15.1307C11.8569 15.119 11.8728 15.1076 11.8889 15.0967C11.9051 15.0858 11.9215 15.0753 11.9381 15.0652C11.9548 15.0551 11.9717 15.0454 11.9888 15.0361C12.0059 15.0269 12.0233 15.018 12.0408 15.0096C12.0584 15.0012 12.0762 14.9933 12.0942 14.9857C12.1121 14.9782 12.1302 14.9711 12.1485 14.9645C12.1668 14.9579 12.1852 14.9517 12.2038 14.946C12.2224 14.9403 12.2411 14.9351 12.2599 14.9303C12.2788 14.9255 12.2978 14.9212 12.3168 14.9174C12.3358 14.9135 12.355 14.9102 12.3742 14.9073C12.3934 14.9044 12.4127 14.902 12.432 14.9C12.4514 14.8981 12.4707 14.8967 12.4902 14.8958C12.5096 14.8948 12.529 14.8943 12.5484 14.8943C12.5678 14.8943 12.5872 14.8948 12.6066 14.8958C12.6261 14.8967 12.6454 14.8981 12.6648 14.9C12.6841 14.902 12.7034 14.9044 12.7226 14.9073C12.7418 14.9102 12.7609 14.9135 12.78 14.9174C12.799 14.9212 12.818 14.9255 12.8368 14.9303C12.8557 14.9351 12.8744 14.9403 12.893 14.946C12.9116 14.9517 12.93 14.9579 12.9483 14.9645C12.9666 14.9711 12.9847 14.9782 13.0027 14.9857C13.0206 14.9933 13.0384 15.0012 13.0559 15.0096C13.0735 15.018 13.0908 15.0269 13.108 15.0361C13.1251 15.0454 13.142 15.0551 13.1587 15.0652C13.1753 15.0753 13.1917 15.0858 13.2079 15.0967C13.224 15.1076 13.2399 15.119 13.2555 15.1307C13.2712 15.1424 13.2865 15.1545 13.3015 15.167C13.3165 15.1795 13.3312 15.1923 13.3456 15.2055C13.36 15.2187 13.374 15.2322 13.3878 15.2461C13.4015 15.26 13.4149 15.2742 13.4279 15.2888C13.441 15.3034 13.4537 15.3183 13.466 15.3335C13.4783 15.3487 13.4903 15.3641 13.5019 15.3799C13.5134 15.3957 13.5246 15.4118 13.5354 15.4281C13.5462 15.4445 13.5566 15.4611 13.5666 15.478C13.5766 15.4948 13.5861 15.5119 13.5953 15.5293C13.6044 15.5466 13.6132 15.5642 13.6215 15.5819C13.6298 15.5997 13.6377 15.6177 13.6451 15.6359C13.6525 15.654 13.6595 15.6723 13.666 15.6908C13.6726 15.7094 13.6787 15.728 13.6843 15.7469C13.69 15.7657 13.6951 15.7846 13.6999 15.8037C13.7046 15.8228 13.7089 15.8419 13.7126 15.8612C13.7164 15.8805 13.7197 15.8999 13.7226 15.9193C13.7254 15.9387 13.7278 15.9583 13.7297 15.9778C13.7316 15.9974 13.7331 16.017 13.734 16.0366C13.735 16.0563 13.7355 16.0759 13.7355 16.0956Z" fill="currentColor" />
    <mask id="mask0_1503_4736" style="mask-type: luminance" maskUnits="userSpaceOnUse" x="1" y="5" width="23" height="15">
      <path d="M1.38867 5.51904H23.6109V19.9167H1.38867V5.51904Z" fill="white" />
    </mask>
    <g mask="url(#mask0_1503_4736)">
      <path d="M23.0468 19.9161C23.0462 19.9161 23.0455 19.9161 23.0448 19.9161L1.82269 19.8416C1.69278 19.8409 1.57107 19.7828 1.48969 19.6816C1.40831 19.5805 1.37683 19.4492 1.40419 19.322C1.71053 17.8855 2.9865 13.1269 6.55861 12.2183C7.09264 12.0829 7.91797 12.0733 7.95288 12.0727H7.95695L21.6335 12.115L20.9668 8.74572C20.8512 8.14818 20.5668 7.60324 20.1441 7.16775C19.5705 6.577 18.769 6.23308 17.9451 6.22424L7.20615 6.11344C7.04204 6.11208 6.91078 5.97739 6.91284 5.81399C6.9142 5.64993 7.04888 5.51796 7.21234 5.52067L17.9513 5.63283C18.9318 5.64309 19.8864 6.05263 20.5702 6.75614C21.0734 7.27437 21.4126 7.92392 21.5494 8.63362L22.2892 12.3742L23.6 19.2468C23.6322 19.4122 23.5884 19.5818 23.4804 19.7124C23.373 19.8416 23.2151 19.9161 23.0468 19.9161ZM2.02784 19.2488L23.0106 19.322L21.749 12.7092L7.95695 12.6661C7.91526 12.6668 7.15833 12.6777 6.70427 12.7933C5.28883 13.1529 4.09972 14.253 3.16978 16.0621C2.53999 17.2873 2.19467 18.52 2.02784 19.2488Z" fill="currentColor" />
    </g>
  </symbol>
  <symbol id="product_care_dry_cleaning" viewBox="0 0 24 24" fill="none" xmlns="http://www.w3.org/2000/svg">
    <mask id="mask0_1503_4748" style="mask-type: luminance" maskUnits="userSpaceOnUse" x="3" y="20" width="18" height="1">
      <path d="M3.11133 20.3406H20.9312V20.9156H3.11133V20.3406Z" fill="white" />
    </mask>
    <g mask="url(#mask0_1503_4748)">
      <path d="M20.6601 20.9036H3.38247C3.23288 20.9036 3.11133 20.7821 3.11133 20.6326C3.11133 20.4831 3.23288 20.3616 3.38247 20.3616H20.6601C20.8097 20.3616 20.9312 20.4831 20.9312 20.6326C20.9312 20.7821 20.8097 20.9036 20.6601 20.9036Z" fill="currentColor" />
    </g>
    <mask id="mask1_1503_4748" style="mask-type: luminance" maskUnits="userSpaceOnUse" x="3" y="22" width="18" height="2">
      <path d="M3.11133 22.4917H20.9312V23.045H3.11133V22.4917Z" fill="white" />
    </mask>
    <g mask="url(#mask1_1503_4748)">
      <path d="M20.6601 23.0437H3.38247C3.23288 23.0437 3.11133 22.9222 3.11133 22.7727C3.11133 22.6232 3.23288 22.5017 3.38247 22.5017H20.6601C20.8097 22.5017 20.9312 22.6232 20.9312 22.7727C20.9312 22.9222 20.8097 23.0437 20.6601 23.0437Z" fill="currentColor" />
    </g>
    <mask id="mask2_1503_4748" style="mask-type: luminance" maskUnits="userSpaceOnUse" x="3" y="0" width="18" height="19">
      <path d="M3.11133 0.977783H20.9312V18.8071H3.11133V0.977783Z" fill="white" />
    </mask>
    <g mask="url(#mask2_1503_4748)">
      <path d="M12.0206 18.7878C9.64089 18.7878 7.40313 17.8618 5.7208 16.1798C4.03781 14.4977 3.11133 12.2619 3.11133 9.8835C3.11133 7.50523 4.03781 5.26864 5.7208 3.58731C7.40388 1.90515 9.64089 0.979248 12.0206 0.979248C14.4002 0.979248 16.638 1.90515 18.3203 3.58731C20.0033 5.26939 20.9297 7.50523 20.9297 9.8835C20.9297 12.2619 20.0033 14.4984 18.3203 16.1798C16.638 17.8618 14.4002 18.7878 12.0206 18.7878ZM12.0206 1.5197C9.78507 1.5197 7.68359 2.38952 6.10343 3.96968C4.52327 5.54901 3.65211 7.64924 3.65211 9.8835C3.65211 12.1178 4.52243 14.2181 6.10343 15.7974C7.68442 17.3767 9.78507 18.2474 12.0206 18.2474C14.256 18.2474 16.3575 17.3775 17.9376 15.7974C19.5179 14.2173 20.389 12.1178 20.389 9.8835C20.389 7.64924 19.5186 5.54901 17.9376 3.96968C16.3575 2.38952 14.256 1.5197 12.0206 1.5197Z" fill="currentColor" />
    </g>
    <path d="M9.91274 11.6007L8.96213 14.25C8.87095 14.5031 8.63101 14.6721 8.3622 14.6721C7.92192 14.6721 7.61417 14.236 7.76218 13.8217L10.8244 5.22736C10.9935 4.7523 11.4438 4.43457 11.9487 4.43457C12.4474 4.43457 12.8939 4.74448 13.0677 5.21255L16.2452 13.7586C16.4096 14.2009 16.0823 14.6721 15.6093 14.6721C15.3257 14.6721 15.0717 14.4953 14.9735 14.2298L14.0011 11.6007H9.91274ZM13.6529 10.438C12.6765 7.7474 12.1397 6.31757 11.9176 5.53726H11.9028C11.6526 6.40559 11.0527 8.13676 10.2657 10.438H13.6529Z" fill="currentColor" />
  </symbol>
  <symbol id="product_rating_star" viewBox="0 0 12 11" fill="none" xmlns="http://www.w3.org/2000/svg">
    <path d="M6 0L7.34708 4.1459H11.7063L8.17963 6.7082L9.52671 10.8541L6 8.2918L2.47329 10.8541L3.82037 6.7082L0.293661 4.1459H4.65292L6 0Z" fill="currentColor" />
  </symbol>
  <symbol id="stars-cat-2-mobile" width="66" height="94" viewBox="0 0 66 94" fill="none" xmlns="http://www.w3.org/2000/svg">
    <path d="M14.1137 54.2187C13.3635 54.14 12.6567 54.0324 12 53.9014C12.6853 53.9014 13.3911 54.0107 14.1137 54.2187C25.1385 55.3743 45.51 50.2651 53.2308 21C54.9487 33.338 62.5077 58.4254 79 60.0704C67.6615 66.5822 44.9846 82.4845 44.9846 94C38.8737 81.4883 24.6943 57.2647 14.1137 54.2187Z" fill="#F6D814" />
    <path d="M1.16726 19.1121C0.753003 19.0669 0.36264 19.0049 0 18.9296C0.37845 18.9296 0.768222 18.9924 1.16726 19.1121C7.25558 19.777 18.5055 16.8374 22.7692 0C23.7179 7.09859 27.8923 21.5324 37 22.4789C30.7385 26.2254 18.2154 35.3746 18.2154 42C14.8407 34.8015 7.01031 20.8646 1.16726 19.1121Z" fill="#F6D814" />
  </symbol>
</svg>
