<svg width="57" height="52" viewBox="0 0 57 52" fill="none" xmlns="http://www.w3.org/2000/svg">
<path d="M56.2741 26.966C56.2741 40.3007 42.834 51.763 27.866 51.763C12.8981 51.763 0.111328 41.6486 0.111328 28.2711C0.111195 11.9569 9.25395 -1.09448 29.4987 1.18952C44.4666 1.18952 56.2741 13.6312 56.2741 26.966Z" fill="#38BBD2"/>
<path d="M29.3162 4.89984L29.343 4.90287H29.37C29.9702 4.90287 30.5643 4.92594 31.1518 4.97109L31.1887 4.49203C32.4158 4.58633 33.6147 4.77501 34.7789 5.04938L34.6686 5.51705C35.8368 5.79237 36.9695 6.15581 38.0598 6.59832L38.2405 6.15311C39.3722 6.61243 40.4591 7.15513 41.4937 7.77143L41.2478 8.18423C42.2744 8.79573 43.2486 9.48123 44.1631 10.2308L44.4677 9.85918C45.4099 10.6315 46.2897 11.4704 47.0994 12.3654L46.743 12.6877C47.544 13.5732 48.2747 14.5144 48.9273 15.5009L49.328 15.2358C49.9997 16.2511 50.5905 17.3137 51.092 18.4123L50.6549 18.6119C51.1492 19.6946 51.5546 20.8124 51.8633 21.9544L52.3271 21.829C52.6434 22.9991 52.8604 24.1946 52.9698 25.4042L52.4912 25.4475C52.5444 26.0358 52.5715 26.6273 52.5715 27.2208C52.5715 27.8214 52.5398 28.4176 52.4779 29.0084L52.9557 29.0585C52.8273 30.284 52.5722 31.486 52.203 32.6546L51.7449 32.5098C51.3862 33.645 50.9166 34.7491 50.3476 35.8124L50.7712 36.0391C50.1973 37.1115 49.5253 38.142 48.7668 39.1211L48.387 38.8269C47.6584 39.7675 46.8478 40.6605 45.9658 41.4969L46.2964 41.8456C45.4146 42.6819 44.4634 43.4621 43.4535 44.1776L43.1757 43.7856C42.2007 44.4764 41.1696 45.1062 40.0922 45.6667L40.314 46.093C39.2331 46.6553 38.1067 47.1492 36.9444 47.567L36.7819 47.1148C35.655 47.5198 34.4937 47.8519 33.3073 48.1039L33.4071 48.5739C32.2155 48.8269 30.9988 49.0006 29.7657 49.0878L29.7318 48.6085C29.1334 48.6509 28.5311 48.6724 27.926 48.6724C27.3367 48.6724 26.7513 48.6544 26.1708 48.6189L26.1414 49.0985C24.9392 49.0251 23.7569 48.8779 22.602 48.6619L22.6903 48.1896C21.5266 47.9719 20.3915 47.6831 19.2927 47.3283L19.145 47.7855C17.999 47.4155 16.8915 46.9748 15.8309 46.469L16.0377 46.0353C14.9706 45.5264 13.9525 44.9505 12.9925 44.3138L12.7269 44.7142C11.7238 44.049 10.782 43.3181 9.91146 42.5279L10.2344 42.1721C9.36323 41.3814 8.56585 40.5308 7.85221 39.6273L7.47516 39.9252C6.73319 38.9858 6.07886 37.9895 5.52321 36.9435L5.94754 36.7181C5.40406 35.695 4.95784 34.6239 4.61937 33.5117L4.1597 33.6516C3.81731 32.5265 3.58205 31.3598 3.46456 30.1583L3.94276 30.1115C3.88694 29.5407 3.85841 28.9617 3.85841 28.3751C3.8584 27.6931 3.87669 27.0179 3.91343 26.3507L3.43368 26.3243C3.51037 24.9313 3.66648 23.5714 3.90365 22.2547L4.37652 22.3399C4.6201 20.9877 4.95016 19.6839 5.36802 18.4396L4.91254 18.2866C5.35617 16.9656 5.89764 15.7083 6.53907 14.5279L6.96124 14.7573C7.60647 13.5699 8.35404 12.464 9.20574 11.4528L8.83825 11.1432C9.71562 10.1016 10.702 9.15633 11.7997 8.32202L12.0905 8.70456C13.1272 7.91659 14.2668 7.22967 15.5118 6.65686L15.311 6.22036C16.5065 5.67029 17.7959 5.22338 19.1809 4.89047L19.2931 5.35764C20.5353 5.05907 21.8585 4.85356 23.2646 4.7501L23.2293 4.27092C24.5263 4.1755 25.8903 4.1656 27.3223 4.24743L27.2949 4.72713C27.9535 4.76477 28.6272 4.82211 29.3162 4.89984Z" stroke="white" stroke-width="0.960961" stroke-dasharray="3.84 3.84"/>
</svg>
